<svg aria-hidden="true" style="position: absolute; width: 0; height: 0; overflow: hidden;" version="1.1" xmlns="http://www.w3.org/2000/svg" xmlns:xlink="http://www.w3.org/1999/xlink">
<defs>
<symbol id="icon-facebook" viewBox="0 0 32 32">
<path d="M19 6h5v-6h-5c-3.86 0-7 3.14-7 7v3h-4v6h4v16h6v-16h5l1-6h-6v-3c0-0.542 0.458-1 1-1z"></path>
</symbol>
<symbol id="icon-instagram" viewBox="0 0 32 32">
<path d="M9.953 1.421c1.564-0.072 2.063-0.088 6.047-0.088s4.483 0.017 6.045 0.088 2.629 0.32 3.563 0.681c1.016 0.39 1.883 0.966 2.596 1.692l0.001 0.001c0.728 0.714 1.303 1.58 1.674 2.547l0.017 0.049c0.363 0.933 0.611 2 0.683 3.56 0.072 1.567 0.088 2.065 0.088 6.048s-0.017 4.483-0.088 6.047c-0.071 1.56-0.32 2.627-0.683 3.56-0.389 1.017-0.964 1.883-1.689 2.597l-0.001 0.001-0.001 0.001c-0.715 0.727-1.581 1.302-2.548 1.674l-0.049 0.017c-0.933 0.363-2 0.611-3.56 0.683-1.565 0.072-2.064 0.088-6.048 0.088s-4.483-0.017-6.047-0.088c-1.56-0.071-2.627-0.32-3.56-0.683-1.016-0.389-1.883-0.964-2.597-1.689l-0.001-0.001-0.001-0.001c-0.716-0.702-1.284-1.552-1.658-2.499l-0.017-0.049-0.017-0.049c-0.361-0.933-0.609-2-0.681-3.56-0.072-1.567-0.088-2.065-0.088-6.048s0.017-4.483 0.088-6.045 0.32-2.629 0.681-3.563c0.391-1.015 0.966-1.881 1.691-2.595l0.002-0.002c0.702-0.715 1.551-1.284 2.498-1.658l0.098-0.034c0.933-0.361 2-0.609 3.56-0.681zM21.927 4.061c-1.547-0.071-2.011-0.085-5.927-0.085s-4.38 0.015-5.927 0.085c-1.431 0.065-2.207 0.304-2.724 0.505-0.661 0.25-1.224 0.623-1.686 1.095l-0.001 0.001c-0.467 0.454-0.837 1.007-1.075 1.624l-0.011 0.031-0.010 0.031c-0.201 0.517-0.44 1.293-0.505 2.724-0.071 1.547-0.085 2.011-0.085 5.927s0.015 4.38 0.085 5.927c0.065 1.431 0.304 2.207 0.505 2.724 0.248 0.661 0.622 1.225 1.095 1.686l0.001 0.001c0.462 0.475 1.026 0.848 1.656 1.086l0.031 0.010c0.517 0.201 1.293 0.44 2.724 0.505 1.547 0.071 2.009 0.085 5.927 0.085s4.38-0.015 5.927-0.085c1.431-0.065 2.207-0.304 2.724-0.505 0.661-0.25 1.224-0.623 1.686-1.095l0.001-0.001c0.475-0.462 0.848-1.026 1.086-1.656l0.010-0.031c0.201-0.517 0.44-1.293 0.505-2.724 0.071-1.547 0.085-2.011 0.085-5.927s-0.015-4.38-0.085-5.927c-0.065-1.431-0.304-2.207-0.505-2.724-0.25-0.661-0.623-1.224-1.095-1.686l-0.001-0.001c-0.455-0.466-1.007-0.835-1.624-1.075l-0.031-0.011-0.031-0.010c-0.517-0.201-1.293-0.44-2.724-0.505zM14.127 20.521c0.555 0.237 1.201 0.375 1.879 0.375 2.702 0 4.892-2.19 4.892-4.892 0-1.353-0.55-2.578-1.438-3.464l-0-0c-0.885-0.883-2.107-1.429-3.456-1.429-2.702 0-4.893 2.191-4.893 4.893 0 2.013 1.215 3.742 2.952 4.493l0.032 0.012zM10.669 10.669c1.356-1.318 3.209-2.13 5.252-2.13 4.164 0 7.54 3.376 7.54 7.54 0 2.043-0.812 3.896-2.132 5.254l0.002-0.002c-1.356 1.318-3.209 2.13-5.252 2.13-4.164 0-7.54-3.376-7.54-7.54 0-2.043 0.812-3.896 2.132-5.254l-0.002 0.002zM25.211 9.584c0.345-0.326 0.559-0.786 0.559-1.297 0-0.985-0.798-1.783-1.783-1.783-0.51 0-0.97 0.214-1.295 0.558l-0.001 0.001-0.001 0.001c-0.296 0.318-0.478 0.745-0.478 1.215 0 0.985 0.798 1.783 1.783 1.783 0.471 0 0.899-0.182 1.217-0.48l-0.001 0.001-0.001 0.001z"></path>
</symbol>
<symbol id="icon-linkedin" viewBox="0 0 32 32">
<path d="M12.572 11.959h4.952v2.467c0.713-1.419 2.543-2.693 5.291-2.693 5.268 0 6.519 2.824 6.519 8.005v9.596h-5.333v-8.416c0-2.951-0.713-4.615-2.529-4.615-2.519 0-3.565 1.793-3.565 4.613v8.417h-5.333v-17.375zM3.427 29.107h5.333v-17.375h-5.333zM9.524 6.067v0.002c0 0.939-0.384 1.789-1.004 2.401-0.618 0.616-1.472 0.997-2.414 0.997-0.002 0-0.003 0-0.005 0h-0.009c-0.945-0-1.801-0.381-2.424-0.996l0 0c-0.62-0.613-1.004-1.463-1.004-2.404s0.385-1.792 1.005-2.404l0-0c0.62-0.616 1.474-0.996 2.417-0.996 0.002 0 0.004 0 0.006 0h0.002c0 0 0 0 0 0 0.945 0 1.802 0.38 2.425 0.996l-0-0c0.62 0.613 1.004 1.464 1.004 2.404 0 0 0 0 0 0v0z"></path>
</symbol>
<symbol id="icon-x-twitter" viewBox="0 0 32 32">
<path d="M28.989 29l-10.084-14.905 9.408-11.095h-3.275l-7.588 8.952-6.053-8.952h-8.252l9.72 14.368-9.865 11.632h3.275l8.047-9.491 6.424 9.491h8.244zM10.319 5.091l14.761 21.819h-3.263l-14.764-21.819h3.263z"></path>
</symbol>
<symbol id="icon-youtube" viewBox="0 0 32 32">
<path d="M12.68 10.9c0.036-0.020 0.079-0.032 0.125-0.032s0.089 0.012 0.126 0.033l-0.001-0.001 8.28 4.8c0.075 0.044 0.124 0.124 0.124 0.216s-0.049 0.172-0.123 0.215l-0.001 0.001-8.28 4.8c-0.036 0.021-0.080 0.034-0.126 0.034-0.138 0-0.25-0.112-0.25-0.25 0-0 0-0 0-0v0-9.6c0-0.088 0.048-0.172 0.126-0.216z"></path>
<path d="M22.608 4.14l-0.34-0.014c-2.14-0.086-4.26-0.114-5.42-0.124l-0.87-0.004-0.486 0.002c-1.96 0.016-9.86 0.112-12.040 0.746-0.678 0.196-1.298 0.58-1.794 1.112l0.003-0.003c-0.489 0.527-0.85 1.174-1.041 1.923-0.752 4.72-1.044 11.92 0.020 16.46l0.007 0.030c0.184 0.718 0.545 1.365 1.031 1.89l0.002 0.002c0.474 0.509 1.080 0.895 1.792 1.11 0.98 0.284 3.14 0.46 5.38 0.564l0.592 0.026 0.62 0.024-0.32-0.009c1.708 0.062 3.422 0.101 5.22 0.115l1.076 0.004c1.080-0.004 10.040-0.044 12.38-0.726l0.028-0.007c0.683-0.207 1.289-0.593 1.766-1.105l-0.003 0.003c0.489-0.527 0.85-1.174 1.041-1.923 0.792-4.72 1.036-11.92-0.020-16.48-0.182-0.726-0.542-1.388-1.038-1.92-0.498-0.532-1.116-0.916-1.794-1.112-1.040-0.304-3.4-0.482-5.8-0.584zM28.74 7.2c0.256 0.274 0.452 0.626 0.556 1.028 0.964 4.18 0.762 11 0.006 15.58-0.106 0.38-0.298 0.714-0.54 0.978-0.237 0.255-0.537 0.447-0.876 0.552l-0.014 0.004h-0.004c-0.368 0.108-1.178 0.228-2.38 0.33-1.14 0.096-2.48 0.162-3.8 0.212-2.62 0.094-5.1 0.104-5.64 0.106l-1.068-0.006c-1.77-0.014-3.463-0.051-5.15-0.113l0.31 0.009-0.608-0.022-0.588-0.026c-1.106-0.052-2.16-0.12-3.060-0.206-0.936-0.092-1.556-0.194-1.852-0.28h-0.006c-0.352-0.109-0.652-0.303-0.887-0.557l-0.001-0.001c-0.26-0.283-0.454-0.63-0.554-1.015l-0.004-0.017c-0.966-4.14-0.724-10.96-0.004-15.58 0.108-0.378 0.3-0.71 0.54-0.97 0.236-0.255 0.536-0.447 0.874-0.552l0.014-0.004h0.004c0.336-0.1 1.062-0.212 2.14-0.31 1.032-0.094 2.24-0.166 3.48-0.216 1.678-0.072 3.727-0.123 5.784-0.14l0.076-0h0.476l0.858 0.004c1.154 0.008 3.24 0.036 5.34 0.12l0.34 0.014c1.18 0.050 2.34 0.12 3.3 0.21 1.020 0.096 1.7 0.204 2.020 0.296h0.002c0.352 0.109 0.652 0.303 0.887 0.557l0.001 0.001z"></path>
</symbol>
</defs>
</svg>
