<svg xmlns="http://www.w3.org/2000/svg" aria-hidden="true" style="position:absolute;width:0;height:0;overflow:hidden">
<defs>
<symbol id="ui-burger-close" viewBox="0 0 32 32">
<path d="M23.733 10.304 22.229 8.8l-5.963 5.963L10.303 8.8l-1.504 1.504 5.963 5.963-5.963 5.963 1.504 1.504 5.963-5.963 5.963 5.963 1.504-1.504-5.963-5.963 5.963-5.963z"/>
</symbol>
<symbol id="ui-burger-menu" viewBox="0 0 32 32">
<path d="M6.4 11.733V9.6h19.2v2.133H6.4zm0 5.334h19.2v-2.133H6.4v2.133zm0 5.333h19.2v-2.133H6.4V22.4z"/>
</symbol>
<symbol id="ui-icon-arrow-right" viewBox="0 0 32 32">
<path d="M16 5.333l-1.88 1.88 7.44 7.453h-16.227v2.667h16.227l-7.44 7.453 1.88 1.88 10.667-10.667z"></path>
</symbol>
<symbol id="ui-icon-double-arrow-right" viewBox="0 0 32 32">
<path d="M20.667 6.667h-6l6.667 9.333-6.667 9.333h6l6.667-9.333z"></path>
<path d="M11.333 6.667h-6l6.667 9.333-6.667 9.333h6l6.667-9.333z"></path>
</symbol>
<symbol id="ui-icon-arrow-right-ios" viewBox="0 0 32 32">
<path d="M8.307 26.973l2.36 2.36 13.333-13.333-13.333-13.333-2.36 2.36 10.973 10.973z"></path>
</symbol>
<symbol id="ui-icon-pin-location" viewBox="0 0 32 32">
<path d="M16 0.062c-5.434 0-9.84 4.238-9.84 9.466 0 1.35 0.3 2.634 0.828 3.796l9.18 14.642 8.844-14.642c0.52-1.112 0.824-2.416 0.824-3.79 0-0.002 0-0.005 0-0.007v0c0-5.228-4.402-9.466-9.836-9.466zM16 16.242c-3.409-0.006-6.17-2.77-6.17-6.18 0-0.006 0-0.011 0-0.017v0.001c0-0.004 0-0.008 0-0.012 0-3.41 2.761-6.175 6.169-6.182h0.001c3.41 0.008 6.172 2.774 6.172 6.186 0 0.003 0 0.006 0 0.008v-0c0 0.003 0 0.007 0 0.010 0 3.412-2.762 6.178-6.171 6.186h-0.001zM19.954 9.966c0 0.002 0 0.005 0 0.008 0 2.186-1.77 3.959-3.956 3.962h-0c-2.185-0.006-3.954-1.778-3.954-3.964 0-0.002 0-0.004 0-0.006v0c0-0.002 0-0.004 0-0.006 0-2.185 1.77-3.957 3.954-3.96h0c2.184 0 3.956 1.778 3.956 3.966z"></path>
<path d="M10.598 23.646c-3.434 0.728-4.86 1.684-4.86 2.758 0 1.538 3.662 3.658 10.232 3.658s10.232-2.12 10.232-3.658c0-1.070-1.416-1.998-4.802-2.758v-1.64c3.73 0.732 6.508 2.202 6.508 4.398 0 3.168-6.152 5.54-11.938 5.54s-11.938-2.372-11.938-5.54c0-2.2 2.796-3.698 6.546-4.404l0.020 1.646z"></path>
</symbol>
<symbol id="ui-icon-location" viewBox="0 0 32 32">
<path d="M16 3.214c-4.419 0-8 3.566-8 7.984 0 7.638 8 17.6 8 17.6s8-9.963 8-17.6c0-4.416-3.581-7.984-8-7.984zM16 15.616c-2.386 0-4.32-1.934-4.32-4.32s1.934-4.32 4.32-4.32v0c2.386 0 4.32 1.934 4.32 4.32s-1.934 4.32-4.32 4.32v0z"></path>
</symbol>
<symbol id="ui-icon-pin" viewBox="0 0 32 32">
<path d="M16 0c-3.35 0-6.066 2.716-6.066 6.066 0 0 0 0 0 0.001v-0c0 0 0 0 0 0 0 3.068 2.278 5.604 5.234 6.009l0.032 0.004v19.121c0 0.442 0.358 0.8 0.8 0.8v0c0.442 0 0.8-0.358 0.8-0.8v0-19.121c2.988-0.409 5.266-2.945 5.266-6.012v0c0-0 0-0 0-0.001 0-3.35-2.716-6.066-6.066-6.066v0zM14.454 2.736c1.051 0 1.903 0.852 1.903 1.903v0c0 1.051-0.852 1.903-1.903 1.903v0c-1.051 0-1.903-0.852-1.903-1.903v0c0-1.051 0.852-1.903 1.903-1.903v0z"></path>
</symbol>
<symbol id="ui-icon-email" viewBox="0 0 32 32">
<path d="M23.373 19.475c0 1.344 0.382 1.88 1.382 1.88 2.229 0 3.648-2.84 3.648-7.563 0-7.219-5.261-10.675-11.829-10.675-6.757 0-12.902 4.531-12.902 13.094 0 8.179 5.376 12.634 13.632 12.634 2.803 0 4.685-0.307 7.563-1.267l0.618 2.571c-2.842 0.923-5.878 1.19-8.219 1.19-10.829 0-16.629-5.952-16.629-15.13 0-9.254 6.722-15.552 15.976-15.552 9.638 0 14.744 5.76 14.744 12.826 0 5.99-1.88 10.56-7.794 10.56-2.69 0-4.454-1.075-4.685-3.458-0.691 2.65-2.534 3.458-5.032 3.458-3.341 0-6.144-2.574-6.144-7.757 0-5.222 2.459-8.448 6.875-8.448 2.342 0 3.802 0.922 4.451 2.381l1.115-2.035h3.226v11.291h0.003zM18.651 14.406c0-2.11-1.576-2.995-2.882-2.995-1.421 0-2.994 1.15-2.994 4.531 0 2.688 1.19 4.186 2.994 4.186 1.267 0 2.882-0.806 2.882-3.034v-2.688z"></path>
</symbol>
<symbol id="ui-icon-mobile" viewBox="0 0 32 32">
<path d="M18.56 1.28q0.8 0.020 1.36 0.56 0.54 0.56 0.56 1.36v26.88q-0.020 0.8-0.56 1.36-0.56 0.54-1.36 0.56h-15.36q-0.8-0.020-1.36-0.56-0.54-0.56-0.56-1.36v-26.88q0.020-0.8 0.56-1.36 0.56-0.54 1.36-0.56h15.36zM9.92 3.2q-0.4 0-0.68 0.28t-0.28 0.68 0.28 0.68 0.68 0.28h1.92q0.4 0 0.68-0.28t0.28-0.68-0.28-0.68-0.68-0.28h-1.92zM11.84 30.080q0.4 0 0.68-0.28t0.28-0.68-0.28-0.68-0.68-0.28h-1.92q-0.4 0-0.68 0.28t-0.28 0.68 0.28 0.68 0.68 0.28h1.92zM18.56 26.24v-19.2h-15.36v19.2h15.36zM27.72 9.4q3 3.16 3 7.24t-3 7.24q-0.4 0.36-0.9 0.36-0.52 0-0.9-0.38-0.4-0.4-0.4-0.88 0-0.5 0.4-0.9 2.24-2.36 2.24-5.44t-2.24-5.44q-0.4-0.4-0.4-0.9 0-0.48 0.4-0.88 0.38-0.38 0.9-0.38 0.5 0 0.9 0.36zM24.12 13q1.48 1.6 1.48 3.64t-1.48 3.64q-0.4 0.36-0.92 0.36t-0.9-0.38-0.38-0.9 0.36-0.92q0.76-0.76 0.76-1.8t-0.76-1.8q-0.36-0.38-0.36-0.92 0-0.52 0.38-0.9t0.9-0.38 0.92 0.36z"></path>
</symbol>
<symbol id="ui-icon-phone" viewBox="0 0 32 32">
<path d="M22 20c-2 2-2 4-4 4s-4-2-6-4-4-4-4-6 2-2 4-4-4-8-6-8-6 6-6 6c0 4 4.11 12.11 8 16s12 8 16 8c0 0 6-4 6-6s-6-8-8-6z"></path>
</symbol>
<symbol id="ui-icon-mail" viewBox="0 0 32 32">
<path d="M18.667 2.667h-14.667v12l2.667-1.333v-8h10.893l6.44 5.333v16h-5.333v2.667h8v-20zM14.885 27.218l0.278 1.544q-1.737 0.571-3.542 0.571-3.321 0-5.404-1.935-2.217-2.045-2.217-5.413 0-3.178 2.102-5.223 2.169-2.095 5.5-2.095 3.014 0 4.982 1.624 0.979 0.812 1.526 1.995 0.557 1.223 0.557 2.697 0 2.336-1.296 3.729-1.161 1.243-2.62 1.243-1.555 0-1.709-1.414-0.96 1.414-2.592 1.414-1.315 0-2.083-0.762-0.835-0.822-0.835-2.256 0-0.952 0.379-1.87t1.051-1.589q1.277-1.273 3.283-1.273 1.517 0 2.832 0.491l-0.643 4.17q-0.096 0.612-0.096 0.892 0 0.692 0.585 0.692 0.768 0 1.373-0.932 0.739-1.133 0.739-2.687 0-2.135-1.44-3.328-1.593-1.313-3.955-1.313-1.824 0-3.321 0.902-1.411 0.852-2.121 2.306-0.566 1.183-0.566 2.627 0 2.737 1.901 4.341 1.67 1.414 4.243 1.414 1.469 0 3.11-0.561zM13.071 19.739q-0.49-0.14-0.797-0.14-0.547 0-1.085 0.286t-0.921 0.787q-0.787 1.013-0.787 2.266 0 0.702 0.346 1.108t0.941 0.406q0.864 0 1.43-0.742 0.298-0.381 0.47-1.474z"></path>
</symbol>
<symbol id="ui-icon-iphone" viewBox="0 0 32 32">
<path d="M23 0h-14c-1.65 0-3 1.35-3 3v26c0 1.65 1.35 3 3 3h14c1.65 0 3-1.35 3-3v-26c0-1.65-1.35-3-3-3zM12 1.5h8v1h-8v-1zM16 30c-1.105 0-2-0.895-2-2s0.895-2 2-2v0c1.105 0 2 0.895 2 2s-0.895 2-2 2v0zM24 24h-16v-20h16v20z"></path>
</symbol>
<symbol id="ui-icon-email-check" viewBox="0 0 32 32">
<path d="M17.333 25.333c0-0.453 0.053-0.893 0.12-1.333h-12.12v-13.333l10.667 6.667 10.667-6.667v6.787c0.96 0.16 1.853 0.493 2.667 0.96v-10.413c0-1.467-1.2-2.667-2.667-2.667h-21.333c-1.467 0-2.667 1.2-2.667 2.667v16c0 1.467 1.2 2.667 2.667 2.667h12.12c-0.067-0.44-0.12-0.88-0.12-1.333zM26.667 8l-10.667 6.667-10.667-6.667zM23.667 29.547l-3.667-4 1.547-1.547 2.12 2.12 4.787-4.787 1.547 1.88z"></path>
</symbol>
<symbol id="ui-icon-email-edit" viewBox="0 0 32 32">
<path d="M25.427 18.507l-8.093 8.080v2.747h2.747l8.080-8.093zM30.267 18.107l-1.707-1.707c-0.126-0.138-0.306-0.225-0.506-0.227h-0c-0.2 0.013-0.387 0.080-0.52 0.227l-1.333 1.333 2.733 2.667 1.333-1.333c0.253-0.267 0.253-0.693 0-0.96zM14.667 24h-9.333v-13.333l10.667 6.667 10.667-6.667v2.667h2.667v-5.333c0-1.467-1.2-2.667-2.667-2.667h-21.333c-1.467 0-2.667 1.2-2.667 2.667v16c0 1.467 1.2 2.667 2.667 2.667h9.333v-2.667zM26.667 8l-10.667 6.667-10.667-6.667h21.333z"></path>
</symbol>
<symbol id="ui-icon-send" viewBox="0 0 32 32">
<path d="M32 0 0 18l10.227 3.788L26 7 14.002 23.186l.01.004-.012-.004V32l5.735-6.691L27 28l5-28z"/>
</symbol>
<symbol id="ui-icon-close" viewBox="0 0 32 32">
<path d="M8.533 25.333l-1.867-1.867 7.467-7.467-7.467-7.467 1.867-1.867 7.467 7.467 7.467-7.467 1.867 1.867-7.467 7.467 7.467 7.467-1.867 1.867-7.467-7.467-7.467 7.467z"></path>
</symbol>
    <symbol id="ui-icon-email-2" viewBox="0 0 32 32">
      <path d="M26.667 5.333H5.334A2.663 2.663 0 0 0 2.681 8l-.013 16c0 1.467 1.2 2.667 2.667 2.667h21.333c1.467 0 2.667-1.2 2.667-2.667V8c0-1.467-1.2-2.667-2.667-2.667zM26.133 11l-9.427 5.893a1.346 1.346 0 0 1-1.413 0L5.866 11a1.132 1.132 0 1 1 1.2-1.92l8.933 5.587 8.933-5.587a1.132 1.132 0 1 1 1.2 1.92z"/>
    </symbol>
    <symbol id="ui-icon-phone-2" viewBox="0 0 32 32">
      <path d="m24.882 19.773-3.268-.373a2.561 2.561 0 0 0-2.11.733L17.137 22.5a19.357 19.357 0 0 1-8.478-8.478l2.38-2.38a2.561 2.561 0 0 0 .733-2.11l-.373-3.242a2.575 2.575 0 0 0-2.56-2.277H6.613c-1.454 0-2.663 1.209-2.573 2.663.682 10.987 9.469 19.761 20.443 20.443 1.454.09 2.663-1.119 2.663-2.573V22.32a2.549 2.549 0 0 0-2.264-2.547z"/>
    </symbol>
    <symbol id="ui-icon-person" viewBox="0 0 32 32">
      <path d="M16 16c2.947 0 5.333-2.387 5.333-5.333S18.946 5.334 16 5.334c-2.947 0-5.333 2.387-5.333 5.333S13.054 16 16 16zm0 2.667c-3.56 0-10.667 1.787-10.667 5.333v1.333c0 .733.6 1.333 1.333 1.333h18.667c.733 0 1.333-.6 1.333-1.333V24c0-3.547-7.107-5.333-10.667-5.333z"/>
    </symbol>
<symbol id="ui-icon-target" viewBox="0 0 32 32">
<path d="M14.667 2.667v2.76c-4.829 0.63-8.61 4.411-9.234 9.186l-0.006 0.054h-2.76v2.667h2.76c0.63 4.829 4.411 8.61 9.186 9.234l0.054 0.006v2.76h2.667v-2.76c4.829-0.63 8.61-4.411 9.234-9.186l0.006-0.054h2.76v-2.667h-2.76c-0.63-4.829-4.411-8.61-9.186-9.234l-0.054-0.006v-2.76zM14.667 8.107v2.56h2.667v-2.547c3.333 0.547 6 3.213 6.56 6.547h-2.56v2.667h2.547c-0.547 3.333-3.213 6-6.547 6.56v-2.56h-2.667v2.547c-3.333-0.547-6-3.213-6.56-6.547h2.56v-2.667h-2.547c0.547-3.333 3.213-6 6.547-6.56zM16 14.667c-0.736 0-1.333 0.597-1.333 1.333v0c0 0.736 0.597 1.333 1.333 1.333v0c0.736 0 1.333-0.597 1.333-1.333v0c0-0.736-0.597-1.333-1.333-1.333v0z"></path>
</symbol>
<symbol id="ui-icon-check-fill" viewBox="0 0 32 32">
<path d="M18.488 0.885l0.301 0.269 2.373 2.373 3.36 0.003c0 0 0 0 0 0 1.914 0 3.509 1.362 3.87 3.17l0.004 0.025 0.053 0.368 0.019 0.381-0.005 3.357 2.381 2.379c0.714 0.714 1.156 1.701 1.156 2.791 0 0.807-0.242 1.558-0.659 2.184l0.009-0.015-0.237 0.32-0.269 0.299-2.381 2.376 0.003 3.355c0 1.757-1.152 3.264-2.816 3.773l-0.363 0.093-0.379 0.061-0.384 0.019h-3.36l-2.376 2.379c-0.714 0.714-1.701 1.156-2.791 1.156-0.807 0-1.558-0.242-2.184-0.659l0.014 0.009-0.32-0.237-0.299-0.269-2.379-2.381-3.355 0.003c-0.001 0-0.003 0-0.005 0-1.911 0-3.504-1.358-3.869-3.161l-0.004-0.025-0.053-0.371-0.016-0.379v-3.368l-2.373-2.373c-0.714-0.714-1.156-1.701-1.156-2.791 0-0.807 0.242-1.558 0.659-2.184l-0.009 0.014 0.235-0.32 0.269-0.299 2.373-2.376 0.003-3.36c0-1.92 1.376-3.52 3.195-3.872l0.371-0.053 0.379-0.019h3.36l2.376-2.373c0.714-0.714 1.701-1.156 2.791-1.156 0.947 0 1.816 0.334 2.496 0.89l-0.007-0.006zM21.72 10.637l-0.227 0.189-6.827 6.827-2.827-2.827c-0.303-0.295-0.717-0.478-1.173-0.478s-0.871 0.182-1.174 0.478l0-0c-0.297 0.303-0.48 0.718-0.48 1.176 0 0.353 0.109 0.68 0.294 0.95l-0.004-0.006 0.189 0.227 4 4c0.301 0.299 0.716 0.484 1.175 0.484 0.364 0 0.7-0.117 0.974-0.314l-0.005 0.003 0.203-0.173 8-8c0.308-0.296 0.5-0.713 0.5-1.173s-0.192-0.877-0.499-1.173l-0.001-0.001c-0.303-0.297-0.718-0.48-1.176-0.48-0.353 0-0.68 0.109-0.95 0.294l0.006-0.004z"></path>
</symbol>
<symbol id="ui-icon-checkmark" viewBox="0 0 32 32">
<path d="M27 4l-15 15-7-7-5 5 12 12 20-20z"></path>
</symbol>
<symbol id="ui-icon-calendar-1" viewBox="0 0 32 32">
<path d="M9.6 2.133c0.589 0 1.067 0.478 1.067 1.067v0 1.067h10.667v-1.067c0-0.589 0.478-1.067 1.067-1.067s1.067 0.478 1.067 1.067v0 1.067h3.2c1.767 0 3.2 1.433 3.2 3.2v0 19.2c0 1.767-1.433 3.2-3.2 3.2v0h-21.333c-1.767 0-3.2-1.433-3.2-3.2v0-19.2c0-1.767 1.433-3.2 3.2-3.2v0h3.2v-1.067c0-0.589 0.478-1.067 1.067-1.067v0zM21.333 6.4h-10.667v1.067c0 0.589-0.478 1.067-1.067 1.067s-1.067-0.478-1.067-1.067v-1.067h-3.2c-0.589 0-1.067 0.478-1.067 1.067v3.2h23.467v-3.2c0-0.589-0.478-1.067-1.067-1.067h-3.2v1.067c0 0.589-0.478 1.067-1.067 1.067s-1.067-0.478-1.067-1.067v-1.067zM4.267 12.8v13.867c0 0.589 0.478 1.067 1.067 1.067v0h21.333c0.589 0 1.067-0.478 1.067-1.067v0-13.867h-23.467zM14.933 16c0-0.589 0.478-1.067 1.067-1.067s1.067 0.478 1.067 1.067v0c0 0.589-0.478 1.067-1.067 1.067s-1.067-0.478-1.067-1.067v0zM20.267 14.933c-0.589 0-1.067 0.478-1.067 1.067s0.478 1.067 1.067 1.067v0c0.589 0 1.067-0.478 1.067-1.067s-0.478-1.067-1.067-1.067v0zM23.467 16c0-0.589 0.478-1.067 1.067-1.067s1.067 0.478 1.067 1.067v0c0 0.589-0.478 1.067-1.067 1.067s-1.067-0.478-1.067-1.067v0zM24.533 19.2c-0.589 0-1.067 0.478-1.067 1.067s0.478 1.067 1.067 1.067v0c0.589 0 1.067-0.478 1.067-1.067s-0.478-1.067-1.067-1.067v0zM19.2 20.267c0-0.589 0.478-1.067 1.067-1.067s1.067 0.478 1.067 1.067v0c0 0.589-0.478 1.067-1.067 1.067s-1.067-0.478-1.067-1.067v0zM16 19.2c-0.589 0-1.067 0.478-1.067 1.067s0.478 1.067 1.067 1.067v0c0.589 0 1.067-0.478 1.067-1.067s-0.478-1.067-1.067-1.067v0zM10.667 20.267c0-0.589 0.478-1.067 1.067-1.067s1.067 0.478 1.067 1.067v0c0 0.589-0.478 1.067-1.067 1.067s-1.067-0.478-1.067-1.067v0zM7.467 19.2c-0.589 0-1.067 0.478-1.067 1.067s0.478 1.067 1.067 1.067v0c0.589 0 1.067-0.478 1.067-1.067s-0.478-1.067-1.067-1.067v0zM6.4 24.533c0-0.589 0.478-1.067 1.067-1.067s1.067 0.478 1.067 1.067v0c0 0.589-0.478 1.067-1.067 1.067s-1.067-0.478-1.067-1.067v0zM11.733 23.467c-0.589 0-1.067 0.478-1.067 1.067s0.478 1.067 1.067 1.067v0c0.589 0 1.067-0.478 1.067-1.067s-0.478-1.067-1.067-1.067v0zM14.933 24.533c0-0.589 0.478-1.067 1.067-1.067s1.067 0.478 1.067 1.067v0c0 0.589-0.478 1.067-1.067 1.067s-1.067-0.478-1.067-1.067v0zM20.267 23.467c-0.589 0-1.067 0.478-1.067 1.067s0.478 1.067 1.067 1.067v0c0.589 0 1.067-0.478 1.067-1.067s-0.478-1.067-1.067-1.067v0z"></path>
</symbol>
<symbol id="ui-icon-calendar-2" viewBox="0 0 32 32">
<path d="M10.333 17.333c0.92 0 1.667-0.746 1.667-1.667s-0.746-1.667-1.667-1.667v0c-0.92 0-1.667 0.746-1.667 1.667s0.746 1.667 1.667 1.667v0zM17.667 15.667c0 0.92-0.746 1.667-1.667 1.667s-1.667-0.746-1.667-1.667v0c0-0.92 0.746-1.667 1.667-1.667s1.667 0.746 1.667 1.667v0zM21.667 17.333c0.92 0 1.667-0.746 1.667-1.667s-0.746-1.667-1.667-1.667v0c-0.92 0-1.667 0.746-1.667 1.667s0.746 1.667 1.667 1.667v0zM12 21c0 0.92-0.746 1.667-1.667 1.667s-1.667-0.746-1.667-1.667v0c0-0.92 0.746-1.667 1.667-1.667s1.667 0.746 1.667 1.667v0zM16 22.667c0.92 0 1.667-0.746 1.667-1.667s-0.746-1.667-1.667-1.667v0c-0.92 0-1.667 0.746-1.667 1.667s0.746 1.667 1.667 1.667v0zM4 8.167c0-2.301 1.865-4.167 4.167-4.167v0h15.667c2.301 0 4.167 1.865 4.167 4.167v0 15.667c0 2.301-1.865 4.167-4.167 4.167v0h-15.667c-2.301 0-4.167-1.865-4.167-4.167v0-15.667zM8.167 5.667c-1.381 0-2.5 1.119-2.5 2.5v0 1.167h20.667v-1.167c0-1.381-1.119-2.5-2.5-2.5v0h-15.667zM5.667 23.833c0 1.381 1.119 2.5 2.5 2.5v0h15.667c1.381 0 2.5-1.119 2.5-2.5v0-12.833h-20.667v12.833z"></path>
</symbol>
<symbol id="ui-icon-price-tag" viewBox="0 0 32 32">
<path d="M30.5 0h-12c-0.825 0-1.977 0.477-2.561 1.061l-14.879 14.879c-0.583 0.583-0.583 1.538 0 2.121l12.879 12.879c0.583 0.583 1.538 0.583 2.121 0l14.879-14.879c0.583-0.583 1.061-1.736 1.061-2.561v-12c0-0.825-0.675-1.5-1.5-1.5zM23 12c-1.657 0-3-1.343-3-3s1.343-3 3-3 3 1.343 3 3-1.343 3-3 3z"></path>
</symbol>
<symbol id="ui-icon-price-tags" viewBox="0 0 40 32">
<path d="M38.5 0h-12c-0.825 0-1.977 0.477-2.561 1.061l-14.879 14.879c-0.583 0.583-0.583 1.538 0 2.121l12.879 12.879c0.583 0.583 1.538 0.583 2.121 0l14.879-14.879c0.583-0.583 1.061-1.736 1.061-2.561v-12c0-0.825-0.675-1.5-1.5-1.5zM31 12c-1.657 0-3-1.343-3-3s1.343-3 3-3 3 1.343 3 3-1.343 3-3 3z"></path>
<path d="M4 17l17-17h-2.5c-0.825 0-1.977 0.477-2.561 1.061l-14.879 14.879c-0.583 0.583-0.583 1.538 0 2.121l12.879 12.879c0.583 0.583 1.538 0.583 2.121 0l0.939-0.939-13-13z"></path>
</symbol>
<symbol id="ui-icon-calendar" viewBox="0 0 32 32">
<path d="M10 12h4v4h-4zM16 12h4v4h-4zM22 12h4v4h-4zM4 24h4v4h-4zM10 24h4v4h-4zM16 24h4v4h-4zM10 18h4v4h-4zM16 18h4v4h-4zM22 18h4v4h-4zM4 18h4v4h-4zM26 0v2h-4v-2h-14v2h-4v-2h-4v32h30v-32h-4zM28 30h-26v-22h26v22z"></path>
</symbol>
<symbol id="ui-icon-skeet" viewBox="0 0 32 32">
<path d="M30.104 0.167c0.081-0.081 0.383-0.040 0.508 0.068 0.205 0.178 0.888 1.003 0.888 1.073 0 0.035-0.485 0.479-1.078 0.986-9.373 8.012-10.62 9.098-10.588 9.218 0.049 0.187-3.334 3.539-4.91 4.864-0.674 0.567-1.221 1.064-1.216 1.105 0.014 0.099-2.009 1.828-2.193 1.874-0.093 0.023-0.189-0.004-0.268-0.075-0.144-0.13-0.157-0.122-0.212 0.136-0.038 0.176-0.025 0.2 0.13 0.239 0.269 0.067 0.633 0.39 0.68 0.601 0.056 0.255-0.185 0.734-0.463 0.918-0.462 0.306-1.007 0.331-1.508 0.070-0.192-0.1-0.291-0.12-0.365-0.075-0.197 0.12-0.5 0.651-0.574 1.006-0.098 0.47-0.043 1.209 0.122 1.64 0.072 0.189 0.131 0.363 0.131 0.386s-0.091 0.096-0.203 0.161c-0.112 0.066-0.402 0.237-0.644 0.38-0.533 0.315-0.643 0.326-0.694 0.071-0.074-0.372-0.221-0.175-1.094 1.471-1.476 2.783-1.415 2.68-1.663 2.813-0.215 0.115-0.234 0.148-0.24 0.411-0.006 0.224-0.086 0.428-0.369 0.937-0.199 0.358-0.439 0.792-0.535 0.964s-0.211 0.319-0.256 0.328c-0.046 0.008-0.768-0.656-1.605-1.476l-1.522-1.492 0.771-0.805c0.424-0.443 1.124-1.171 1.557-1.617 1.15-1.189 2.918-3.068 3.29-3.498 0.32-0.369 0.327-0.373 0.687-0.389 0.326-0.015 0.382-0.038 0.535-0.221 0.094-0.113 0.287-0.426 0.428-0.696s0.367-0.647 0.501-0.838 0.245-0.392 0.246-0.446c0.006-0.224 0.18-0.572 0.364-0.727 0.24-0.202 0.25-0.326 0.029-0.353-0.092-0.011-0.178-0.053-0.191-0.094-0.041-0.126 0.221-0.337 0.375-0.303 0.114 0.025 0.188-0.038 0.405-0.344 0.146-0.206 0.266-0.406 0.266-0.445 0-0.119 0.442-0.745 0.501-0.708 0.030 0.019 1.582-1.268 3.449-2.859s3.717-3.168 4.111-3.504c0.394-0.336 0.788-0.646 0.875-0.69s2.493-2.075 5.346-4.513 5.404-4.617 5.67-4.84c0.313-0.264 0.483-0.452 0.484-0.536 0.001-0.072 0.020-0.149 0.043-0.172zM29.027 2.708c-0.965 0.831-3.482 2.985-5.594 4.786-4.405 3.758-4.030 3.43-3.982 3.479 0.021 0.021 2.297-1.896 5.059-4.26s5.307-4.539 5.657-4.833c0.577-0.486 0.782-0.7 0.659-0.687-0.025 0.003-0.834 0.685-1.799 1.516zM14.404 3.988c0.379-0.333 0.718-0.607 0.752-0.607s0.143 0.126 0.242 0.282l0.179 0.283-0.663 0.594 1.154 1.93-0.291 0.266c-0.16 0.146-0.324 0.266-0.366 0.266s-0.326-0.419-0.634-0.931l-0.559-0.931-0.291 0.243c-0.16 0.134-0.315 0.243-0.345 0.243s-0.136-0.13-0.236-0.289l-0.182-0.289 0.274-0.227c0.151-0.125 0.584-0.5 0.964-0.833zM12.432 5.693c0.24-0.215 0.289-0.199 0.516 0.168l0.137 0.222-0.434 0.394c-0.238 0.217-0.455 0.395-0.48 0.396-0.076 0.003-0.054 0.168 0.032 0.239 0.058 0.048 0.182-0.024 0.473-0.274 0.217-0.186 0.43-0.339 0.473-0.339 0.075 0 0.351 0.426 0.351 0.543 0 0.031-0.196 0.22-0.436 0.42-0.435 0.363-0.436 0.363-0.344 0.54 0.050 0.097 0.114 0.191 0.141 0.208s0.246-0.136 0.485-0.339c0.239-0.203 0.47-0.37 0.512-0.371 0.073-0.001 0.329 0.429 0.329 0.553 0 0.082-1.498 1.384-1.592 1.384-0.043 0-0.213-0.232-0.379-0.516s-0.494-0.837-0.73-1.231c-0.235-0.393-0.415-0.75-0.398-0.792s0.277-0.288 0.58-0.546c0.303-0.258 0.647-0.555 0.764-0.66zM9.529 8.194c0.411-0.348 0.777-0.623 0.813-0.612 0.062 0.020 0.343 0.468 0.345 0.55 0.001 0.021-0.21 0.215-0.468 0.431s-0.469 0.432-0.469 0.479c0 0.211 0.203 0.143 0.593-0.2 0.45-0.395 0.472-0.394 0.701 0.013l0.134 0.238-0.919 0.789 0.254 0.431 0.313-0.266c0.172-0.146 0.393-0.33 0.49-0.408l0.177-0.142 0.191 0.278c0.105 0.153 0.191 0.292 0.191 0.309s-0.368 0.346-0.817 0.732c-0.693 0.595-0.83 0.688-0.901 0.614-0.079-0.082-0.564-0.89-1.207-2.013-0.159-0.277-0.256-0.51-0.224-0.54 0.031-0.028 0.392-0.336 0.803-0.685zM7.707 9.759c0.464-0.4 0.504-0.371 0.442 0.319-0.029 0.318-0.053 0.731-0.053 0.917l-0.001 0.339 0.72 0.255c0.396 0.14 0.756 0.278 0.8 0.307 0.099 0.066 0.044 0.137-0.375 0.488l-0.305 0.256-0.538-0.196c-0.296-0.108-0.554-0.181-0.572-0.162-0.035 0.035 0.152 0.434 0.347 0.737l0.112 0.175-0.313 0.276c-0.172 0.152-0.339 0.268-0.371 0.259-0.057-0.016-0.6-0.892-1.232-1.988l-0.313-0.542 0.239-0.223c0.219-0.204 0.441-0.331 0.485-0.278 0.010 0.012 0.134 0.216 0.277 0.455l0.259 0.434 0.004-0.559c0.005-0.844 0.044-0.969 0.391-1.268zM5.090 12.087c0.17-0.079 0.329-0.13 0.353-0.115 0.105 0.065 0.377 0.606 0.345 0.688-0.019 0.049-0.1 0.090-0.18 0.090-0.251 0-0.791 0.309-0.896 0.514-0.162 0.313-0.029 0.337 0.481 0.086 0.694-0.342 1.080-0.289 1.306 0.18 0.247 0.51 0.129 1.012-0.36 1.541-0.301 0.326-0.96 0.745-1.165 0.741-0.085-0.002-0.486-0.679-0.443-0.748 0.017-0.028 0.171-0.070 0.342-0.094 0.534-0.073 1.147-0.6 0.939-0.807-0.050-0.050-0.17-0.013-0.438 0.135-0.704 0.389-1.181 0.326-1.431-0.191-0.163-0.338-0.164-0.453-0.003-0.883 0.152-0.405 0.664-0.912 1.149-1.137zM10.904 19.872c-0.187 0.076-0.249 0.181-0.342 0.587-0.066 0.285-0.068 0.391-0.010 0.484 0.042 0.067 0.048 0.119 0.014 0.119-0.033 0-0.091-0.113-0.128-0.25-0.073-0.272-0.174-0.313-0.334-0.136-0.134 0.148-0.13 0.209 0.026 0.409 0.115 0.147 0.172 0.165 0.522 0.165 0.467 0 0.74-0.151 0.951-0.527 0.214-0.381 0.121-0.654-0.277-0.82-0.243-0.101-0.246-0.102-0.421-0.031zM15.7 20.069c-0.018-0.054 0.012-0.071 0.090-0.049 0.064 0.018 0.285 0.051 0.492 0.073 1.049 0.113 3.116 0.868 4.733 1.727l0.557 0.296 0.952-0.459c1.173-0.565 1.562-0.726 2.477-1.027 1.497-0.492 2.081-0.628 2.159-0.501 0.023 0.037 0.025 0.083 0.006 0.102s-0.648 0.24-1.397 0.49-1.502 0.516-1.674 0.591c-0.411 0.18-2.094 1.013-2.094 1.037 0 0.010 0.326 0.234 0.725 0.498s0.786 0.539 0.859 0.613c0.074 0.074 0.345 0.301 0.603 0.505 0.773 0.613 2.375 2.282 2.375 2.475 0 0.054-0.099 0.062-0.359 0.029-0.447-0.056-0.554-0.111-0.828-0.431-0.932-1.088-1.823-1.921-2.906-2.72-0.869-0.641-0.897-0.655-1.077-0.573-0.557 0.254-2.048 1.479-3.017 2.479-1.001 1.034-0.978 1.014-1.416 1.15-0.446 0.138-0.584 0.155-0.584 0.074 0-0.171 1.606-1.788 2.371-2.386 0.285-0.223 0.686-0.538 0.891-0.7s0.624-0.443 0.931-0.625c0.501-0.297 0.547-0.339 0.449-0.413-0.060-0.045-0.588-0.32-1.172-0.61-0.983-0.488-1.854-0.84-2.625-1.064-0.71-0.206-1.493-0.506-1.519-0.582zM15.406 20.9c0.137-0.044 0.485-0.081 0.772-0.083 0.424-0.003 0.63 0.032 1.093 0.187 0.797 0.267 1.457 0.692 1.7 1.096 0.285 0.473 0.155 0.987-0.334 1.317-0.112 0.076-0.463 0.199-0.78 0.274-0.464 0.11-0.679 0.129-1.107 0.097-1.559-0.116-2.688-0.774-2.688-1.568 0-0.525 0.553-1.068 1.344-1.319zM26.063 20.907c0.74-0.18 1.514-0.094 2.193 0.246 0.786 0.393 1.090 0.954 0.84 1.551-0.183 0.438-0.768 0.784-1.67 0.989-1.248 0.283-2.762-0.072-3.227-0.757-0.196-0.289-0.165-0.711 0.076-1.027 0.296-0.387 1.087-0.831 1.787-1.002zM14.97 21.448c-0.176 0.435 1.127 1.058 2.249 1.075 0.354 0.005 0.638-0.024 0.766-0.077 0.228-0.096 0.228-0.095 0.138-0.263-0.061-0.114-0.077-0.115-0.253-0.024-0.301 0.156-0.732 0.177-1.308 0.063-0.854-0.168-1.374-0.427-1.497-0.744-0.045-0.116-0.057-0.12-0.094-0.030zM28.142 21.726c-0.116 0.207-0.375 0.345-0.823 0.438-0.546 0.114-1.269 0.108-1.694-0.014-0.471-0.135-0.586-0.137-0.611-0.013-0.033 0.161 0.688 0.363 1.29 0.362 0.79-0.002 1.642-0.239 1.877-0.522 0.043-0.052 0.069-0.16 0.057-0.239l-0.022-0.144-0.074 0.132z"></path>
</symbol>
<symbol id="ui-icon-rifle" viewBox="0 0 32 32">
<path d="M28.311 2.353c1.254-1.122 2.298-2.041 2.32-2.041 0.057 0 0.556 0.549 0.556 0.612 0 0.029-0.299 0.318-0.665 0.642s-0.839 0.744-1.052 0.933c-0.213 0.189-0.763 0.681-1.222 1.094s-1.386 1.242-2.060 1.844c-2.561 2.286-3.501 3.14-3.501 3.182 0 0.024 0.033 0.076 0.072 0.116 0.055 0.055 0.119 0.033 0.263-0.088l0.191-0.16 0.174 0.195c0.148 0.166 0.163 0.213 0.099 0.316-0.061 0.098-0.056 0.142 0.031 0.238 0.129 0.142 0.14 0.327 0.020 0.327-0.048 0-0.238 0.15-0.422 0.334s-0.398 0.367-0.476 0.408-0.141 0.111-0.141 0.155c0 0.044-0.251 0.303-0.558 0.576s-0.56 0.527-0.563 0.566c-0.003 0.039 0.038 0.106 0.090 0.149 0.141 0.117-0.008 0.27-0.222 0.227-0.146-0.029-0.363 0.148-1.847 1.503-0.925 0.845-1.844 1.679-2.041 1.854s-0.359 0.35-0.359 0.389c0 0.039-0.083 0.176-0.184 0.303s-0.303 0.448-0.448 0.712c-0.482 0.88-0.862 1.354-2 2.501l-1.13 1.138-0.085 0.409c-0.091 0.436-0.183 0.574-0.684 1.028-0.479 0.434-0.514 0.454-0.927 0.528l-0.386 0.070-0.020 0.239c-0.022 0.27 0.15 0.567 0.763 1.314 0.313 0.381 0.35 0.456 0.313 0.624-0.050 0.227-0.546 0.69-0.749 0.699-0.076 0.003-0.218 0.064-0.317 0.134s-0.377 0.186-0.619 0.258c-0.303 0.090-0.498 0.192-0.625 0.325-0.102 0.107-0.293 0.281-0.425 0.386-0.24 0.192-0.241 0.192-0.971 0.178-0.655-0.012-0.748-0-0.895 0.115-0.090 0.071-0.201 0.129-0.248 0.129-0.097 0-1.428 1.163-1.428 1.248 0 0.031 0.155 0.234 0.344 0.451s0.344 0.435 0.344 0.484c0 0.15-0.261 0.38-0.432 0.38-0.24 0-1.729 1.568-1.781 1.875-0.1 0.59-0.291 0.509-1.205-0.511-2.389-2.665-2.457-2.75-2.355-2.912 0.075-0.119 0.187-0.183 0.399-0.228 0.215-0.045 1.016-0.779 0.973-0.891-0.019-0.048-0.008-0.136 0.023-0.195s0.071-0.154 0.089-0.211c0.018-0.057 0.546-0.564 1.174-1.125s1.331-1.195 1.56-1.408 0.512-0.425 0.627-0.471c0.207-0.083 0.606-0.1 0.716-0.032 0.031 0.019 0.298-0.18 0.591-0.444s0.94-0.843 1.437-1.288c1.087-0.975 1.141-1.078 0.773-1.485l-0.236-0.261 0.327-0.289c0.288-0.254 0.322-0.309 0.284-0.459-0.050-0.198 0.106-0.416 0.296-0.416 0.162 0 0.214-0.176 0.089-0.301-0.085-0.085-0.123-0.089-0.212-0.026-0.316 0.227-0.412 0.237-0.645 0.068-0.083-0.060-0.172-0.004-0.522 0.328-0.232 0.22-0.464 0.424-0.516 0.453-0.070 0.040-0.203-0.063-0.525-0.406-0.237-0.253-0.431-0.491-0.431-0.53-0.001-0.124 0.927-0.906 1.146-0.966 0.259-0.071 0.746-0.415 0.698-0.493-0.036-0.058 0.34-0.377 0.445-0.377 0.066 0 0.623-0.473 1.128-0.958l0.325-0.312-0.116-0.147c-0.137-0.174-0.105-0.381 0.084-0.535 0.175-0.143 0.307-0.138 0.445 0.014 0.062 0.069 0.132 0.125 0.154 0.125 0.071 0 2.284-2.002 2.271-2.055-0.007-0.028 0.099-0.159 0.234-0.292s0.247-0.28 0.247-0.328c0-0.142 0.224-0.415 0.623-0.761 0.372-0.322 0.374-0.323 0.601-0.242 0.214 0.078 0.589 0.462 0.589 0.605 0 0.036 0.057 0.163 0.128 0.282l0.128 0.216-0.289 0.272c-0.358 0.337-0.765 0.615-0.899 0.615-0.222 0-0.885 0.393-1.323 0.785-0.255 0.228-0.473 0.453-0.483 0.499s0.136 0.253 0.326 0.46l0.346 0.376 0.348-0.318c0.191-0.175 0.429-0.335 0.528-0.357 0.116-0.025 0.763-0.562 1.818-1.507 0.901-0.808 1.813-1.623 2.026-1.813 0.403-0.357 1.428-1.275 4.191-3.75 2.363-2.117 2.941-2.635 5.468-4.896zM12.417 14.86c-0.224 0.197-0.409 0.399-0.412 0.449-0.008 0.14-0.326 0.441-0.47 0.444-0.071 0.002-0.295 0.153-0.497 0.337l-0.368 0.334 0.129 0.178c0.071 0.098 0.242 0.288 0.381 0.423l0.253 0.244 0.543-0.494c0.58-0.528 1.059-0.951 1.39-1.228 0.236-0.198 0.235-0.2-0.219-0.695l-0.323-0.351-0.407 0.358zM10.19 16.841c-0.041 0.050-0.058 0.145-0.037 0.211 0.028 0.087-0.024 0.174-0.186 0.317-0.123 0.108-0.247 0.182-0.276 0.165s-0.081 0.003-0.117 0.047c-0.128 0.154 0.131 0.376 0.529 0.456l0.365 0.073 0.266-0.218c0.146-0.12 0.266-0.253 0.266-0.296 0-0.127-0.588-0.845-0.692-0.845-0.023 0-0.076 0.041-0.118 0.091zM12.123 20.46c-0.305 0.099-0.623 0.339-0.623 0.47 0 0.146 0.302 0.426 0.518 0.479 0.237 0.059 0.179 0.18-0.098 0.204-0.259 0.022-0.574-0.119-0.671-0.301-0.063-0.117-0.076-0.118-0.221-0.023-0.205 0.134-0.202 0.395 0.008 0.644 0.319 0.379 0.863 0.224 1.479-0.421 0.315-0.33 0.359-0.408 0.359-0.627 0-0.196-0.036-0.278-0.165-0.38-0.182-0.144-0.264-0.15-0.587-0.045zM8.783 22.976c-0.194 0.158-0.381 0.348-0.415 0.422s-0.102 0.204-0.151 0.29c-0.184 0.319-0.032 0.805 0.307 0.983 0.415 0.218 1.168 0.051 1.463-0.324 0.164-0.209 0.218-0.612 0.139-1.030-0.091-0.479-0.249-0.628-0.662-0.628-0.296 0-0.361 0.027-0.681 0.288z"></path>
</symbol>
<symbol id="ui-icon-pistol" viewBox="0 0 32 32">
<path d="M25.729 4.57c0.186-0.108 0.251-0.083 0.389 0.151 0.111 0.189 0.148 0.212 0.252 0.156 0.221-0.118 0.313-0.069 0.476 0.252 0.159 0.313 0.164 0.317 0.396 0.278l0.236-0.040 0.573 1.226-0.261 0.226 0.171 0.349c0.098 0.199 0.148 0.372 0.116 0.404-0.053 0.053-1.498 0.744-4.359 2.084-0.756 0.354-2.163 1.015-3.125 1.469s-2.134 1.003-2.603 1.221c-1.102 0.511-1.866 0.896-1.866 0.94 0 0.019 0.144 0.358 0.319 0.754 0.392 0.884 0.424 1.086 0.232 1.459-0.119 0.232-0.244 0.34-0.716 0.625-0.925 0.558-0.915 0.54-0.709 1.282 0.338 1.22 0.014 1.804-1.377 2.484-1.408 0.688-1.61 0.737-2.24 0.55-0.272-0.081-0.623-0.13-0.951-0.134l-0.521-0.006-0.231 0.248c-0.187 0.201-0.239 0.313-0.274 0.594-0.024 0.191-0.023 0.468 0.002 0.618 0.129 0.779 0.883 2.546 1.398 3.271 0.68 0.96 0.719 1.059 0.546 1.394-0.204 0.394-1.259 1.096-2.647 1.762-0.982 0.471-1.313 0.535-1.599 0.309-0.443-0.349-0.975-2.079-1.398-4.546-0.143-0.837-0.169-1.166-0.17-2.232-0.002-1.099 0.015-1.318 0.14-1.811 0.078-0.309 0.214-0.713 0.302-0.898l0.16-0.337-0.136-0.373c-0.215-0.59-0.048-0.935 0.627-1.295 0.418-0.223 1.053-0.813 1.218-1.131 0.095-0.184 0.094-0.204-0.012-0.322-0.063-0.069-0.232-0.195-0.377-0.28-0.218-0.128-0.344-0.154-0.73-0.152-0.257 0.001-0.532 0.019-0.612 0.039-0.086 0.021-0.196-0.003-0.27-0.061-0.123-0.095-0.122-0.099 0.057-0.248 0.1-0.083 0.367-0.213 0.592-0.289 0.343-0.116 0.493-0.132 0.93-0.101 0.326 0.023 0.578 0.011 0.672-0.032 0.193-0.088 0.305-0.416 0.3-0.881-0.004-0.34 0.008-0.368 0.182-0.458 0.139-0.072 0.176-0.126 0.148-0.216-0.021-0.066-0.053-0.172-0.073-0.235-0.025-0.080 0.017-0.149 0.137-0.228 0.169-0.111 0.175-0.11 0.258 0.015 0.085 0.127 0.091 0.126 0.62-0.122 0.463-0.217 0.554-0.241 0.676-0.175 0.162 0.087 0.006 0.149 2.032-0.812 0.739-0.351 1.945-0.917 2.679-1.259s1.606-0.751 1.938-0.909c0.96-0.458 2.868-1.357 4.29-2.021 3.303-1.545 3.437-1.612 3.5-1.749 0.034-0.075 0.196-0.205 0.36-0.288 0.258-0.131 0.293-0.172 0.26-0.3-0.026-0.105-0.004-0.168 0.077-0.215zM25 5.777c-0.852 0.398-0.963 0.495-0.818 0.72 0.048 0.074 0.224 0.014 1-0.34 0.518-0.236 0.942-0.464 0.942-0.507 0-0.155-0.078-0.275-0.179-0.271-0.056 0.002-0.482 0.181-0.946 0.398zM21.719 7.321c-0.988 0.46-0.982 0.456-0.893 0.652 0.038 0.083 0.088 0.152 0.112 0.152 0.038 0 1.818-0.806 1.861-0.843 0.048-0.041-0.119-0.344-0.188-0.342-0.044 0.001-0.445 0.173-0.892 0.381zM18.328 8.918c-0.49 0.229-0.891 0.448-0.891 0.487s0.039 0.124 0.087 0.19c0.083 0.114 0.125 0.1 1.004-0.313 0.505-0.237 0.931-0.454 0.947-0.48 0.045-0.072-0.093-0.301-0.181-0.3-0.042 0-0.477 0.188-0.967 0.417zM13.563 17.041c-0.12 0.053-0.227 0.104-0.236 0.113-0.029 0.027-0.093 0.786-0.1 1.187-0.007 0.358 0.001 0.378 0.212 0.52 0.283 0.191 0.307 0.427 0.041 0.408-0.472-0.033-0.853-0.44-0.853-0.908 0-0.23-0.005-0.235-0.234-0.236-0.129-0-0.315-0.042-0.413-0.094-0.256-0.134-0.312-0.12-0.559 0.134-0.243 0.25-0.364 0.62-0.311 0.951 0.041 0.257 0.661 0.917 0.922 0.983 0.096 0.024 0.316 0.011 0.488-0.029 0.398-0.092 1.494-0.596 1.841-0.847 0.755-0.546 0.764-1.708 0.016-2.075-0.397-0.195-0.563-0.217-0.813-0.107z"></path>
</symbol>
<symbol id="ui-icon-trap" viewBox="0 0 32 32">
<path d="M30.089 0.209c0.059-0.153 0.407-0.099 0.588 0.091 0.361 0.38 0.823 0.944 0.823 1.006 0 0.036-0.373 0.383-0.828 0.772s-1.911 1.633-3.234 2.763c-1.323 1.131-2.586 2.212-2.805 2.404-0.385 0.336-0.949 0.819-3.485 2.982-1.318 1.124-1.363 1.169-1.312 1.304 0.059 0.153-3.452 3.616-4.911 4.844-0.674 0.567-1.235 1.077-1.247 1.132-0.024 0.112-1.872 1.72-2.094 1.822-0.108 0.049-0.179 0.039-0.305-0.043-0.19-0.125-0.189-0.126-0.242 0.123-0.037 0.172-0.022 0.197 0.165 0.264 0.113 0.041 0.304 0.156 0.424 0.256 0.193 0.161 0.217 0.215 0.212 0.467-0.007 0.352-0.229 0.669-0.607 0.868-0.361 0.19-0.97 0.186-1.336-0.008-0.203-0.108-0.289-0.125-0.384-0.074-0.202 0.108-0.5 0.62-0.577 0.993-0.093 0.45-0.031 1.262 0.13 1.703 0.068 0.185 0.102 0.355 0.076 0.379-0.118 0.111-1.275 0.743-1.36 0.743-0.057 0-0.111-0.077-0.134-0.19-0.021-0.105-0.069-0.18-0.108-0.167-0.104 0.034-0.348 0.426-0.786 1.263-0.558 1.066-1.444 2.725-1.545 2.891-0.047 0.078-0.199 0.212-0.337 0.299-0.234 0.148-0.25 0.177-0.237 0.422 0.011 0.219-0.048 0.376-0.35 0.919-0.2 0.36-0.442 0.796-0.537 0.968s-0.211 0.319-0.256 0.328c-0.046 0.008-0.765-0.654-1.598-1.472l-1.515-1.488 0.952-1.004c0.524-0.552 1.712-1.804 2.64-2.781s1.843-1.95 2.034-2.161c0.345-0.382 0.347-0.384 0.655-0.363 0.281 0.019 0.327 0.002 0.503-0.184 0.106-0.113 0.314-0.436 0.461-0.719s0.377-0.67 0.51-0.861 0.245-0.392 0.246-0.446c0.006-0.224 0.18-0.572 0.364-0.727 0.24-0.202 0.25-0.326 0.029-0.353-0.092-0.011-0.178-0.053-0.191-0.094-0.041-0.126 0.221-0.337 0.375-0.303 0.114 0.025 0.188-0.038 0.405-0.344 0.146-0.206 0.266-0.406 0.266-0.445 0-0.117 0.441-0.745 0.499-0.709 0.029 0.018 0.36-0.227 0.735-0.546 0.71-0.602 2.641-2.247 5.732-4.883 0.995-0.849 1.883-1.58 1.973-1.625s1.61-1.319 3.378-2.832c1.768-1.513 4.325-3.7 5.683-4.86s2.46-2.14 2.45-2.176c-0.010-0.036-0.004-0.103 0.014-0.15zM30.156 1.743c-0.344 0.302-2.777 2.386-5.406 4.632-5.673 4.844-5.341 4.555-5.296 4.6 0.030 0.030 2.961-2.45 6.546-5.539 0.912-0.785 1.892-1.624 3.5-2.995 1.152-0.982 1.445-1.256 1.338-1.25-0.031 0.002-0.338 0.25-0.682 0.552zM13.893 4.372c0.332-0.151 0.465-0.152 0.708-0.004 0.666 0.406 0.671 1.38 0.010 2.014l-0.309 0.296 0.228 0.388c0.125 0.214 0.205 0.41 0.177 0.436-0.262 0.248-0.605 0.49-0.652 0.46-0.102-0.063-1.492-2.396-1.491-2.503 0.001-0.098 1.062-0.966 1.33-1.088zM13.777 5.331l-0.167 0.144 0.134 0.262c0.074 0.144 0.156 0.262 0.184 0.262 0.117 0 0.322-0.302 0.322-0.476 0-0.344-0.201-0.426-0.473-0.193zM10.53 7.194c0.171-0.141 0.346-0.256 0.389-0.256s0.451 0.216 0.907 0.479 1.034 0.594 1.284 0.734c0.269 0.151 0.447 0.29 0.438 0.342-0.009 0.048-0.149 0.199-0.311 0.336l-0.294 0.249-0.539-0.316-0.684 0.6 0.108 0.227c0.060 0.125 0.108 0.25 0.108 0.278s-0.143 0.171-0.318 0.319c-0.382 0.322-0.408 0.307-0.638-0.373-0.087-0.258-0.275-0.792-0.418-1.188-0.298-0.825-0.394-1.129-0.365-1.156 0.011-0.011 0.16-0.134 0.332-0.275zM11.25 8.095c0 0.084 0.208 0.53 0.247 0.53 0.058 0 0.282-0.244 0.247-0.27-0.095-0.073-0.494-0.283-0.494-0.26zM8.464 8.993c0.106-0.065 0.301-0.117 0.433-0.117 0.471-0.001 0.854 0.606 0.729 1.154-0.031 0.136-0.048 0.257-0.037 0.268s0.27 0.105 0.575 0.208c0.305 0.104 0.583 0.217 0.617 0.253 0.042 0.043-0.058 0.172-0.307 0.394l-0.37 0.33-0.518-0.186c-0.478-0.172-0.712-0.192-0.712-0.059 0 0.029 0.111 0.234 0.246 0.455l0.246 0.402-0.293 0.263c-0.161 0.145-0.326 0.264-0.367 0.266-0.061 0.002-0.499-0.681-1.020-1.591-0.059-0.103-0.197-0.338-0.306-0.522s-0.204-0.358-0.212-0.386c-0.016-0.060 1.013-0.959 1.294-1.131zM8.422 9.932l-0.226 0.199 0.127 0.216c0.15 0.254 0.177 0.26 0.347 0.075 0.196-0.214 0.225-0.384 0.094-0.546l-0.115-0.142-0.226 0.199zM6.207 10.884c0.165-0.142 0.324-0.259 0.353-0.259s0.13 0.132 0.224 0.292l0.171 0.292-0.656 0.575 0.437 0.748c0.241 0.411 0.496 0.841 0.569 0.956s0.13 0.227 0.127 0.25c-0.007 0.073-0.563 0.511-0.648 0.511-0.065 0-0.595-0.823-0.946-1.469-0.232-0.426-0.208-0.42-0.527-0.15-0.159 0.134-0.321 0.244-0.358 0.244s-0.139-0.125-0.224-0.279l-0.156-0.279 0.262-0.237c0.254-0.229 0.75-0.663 1.371-1.197zM23.219 19.745c0.172-0.028 0.608-0.042 0.969-0.031 0.776 0.023 1.39 0.225 1.75 0.575 0.211 0.205 0.219 0.23 0.219 0.669 0 0.418-0.018 0.482-0.214 0.765-0.478 0.688-1.48 1.313-2.567 1.602-0.724 0.192-2.058 0.205-2.531 0.024-0.419-0.16-0.702-0.384-0.848-0.67-0.261-0.512-0.093-1.034 0.529-1.649 0.637-0.629 1.663-1.119 2.693-1.285zM10.804 19.931c-0.205 0.161-0.363 0.836-0.241 1.031 0.073 0.117 0.071 0.123-0.014 0.053-0.053-0.044-0.113-0.163-0.133-0.266-0.042-0.212-0.161-0.239-0.312-0.072-0.134 0.148-0.13 0.209 0.026 0.409 0.115 0.147 0.172 0.165 0.522 0.165 0.488 0 0.749-0.156 0.973-0.579 0.146-0.276 0.15-0.307 0.060-0.467-0.095-0.171-0.438-0.382-0.63-0.388-0.056-0.002-0.169 0.050-0.251 0.115zM24.625 20.3c0 0.076-0.096 0.243-0.213 0.372-0.669 0.737-2.434 1.221-3.055 0.837l-0.219-0.135-0.132 0.223c-0.167 0.283-0.165 0.306 0.027 0.394 0.227 0.103 0.514 0.090 1.227-0.055 0.831-0.169 1.963-0.719 2.356-1.143 0.157-0.17 0.195-0.442 0.078-0.559-0.052-0.052-0.070-0.035-0.070 0.067zM18.781 22.413c-0.241 0.086-0.677 0.241-0.969 0.344-0.973 0.344-1.688 0.641-1.688 0.699 0 0.032 0.063 0.043 0.141 0.026s0.366-0.080 0.641-0.139 0.711-0.16 0.969-0.225c1.343-0.337 1.496-0.407 1.591-0.727 0.035-0.118 0.019-0.14-0.103-0.137-0.080 0.002-0.342 0.073-0.582 0.159zM19.344 23.032c-0.034 0.012-0.273 0.083-0.531 0.158-0.78 0.227-3.058 1.003-3.399 1.158-0.524 0.238-0.375 0.213 1.305-0.221 1.942-0.502 2.877-0.763 2.95-0.824 0.044-0.037 0.081-0.12 0.081-0.184 0-0.088-0.044-0.116-0.172-0.112-0.095 0.003-0.2 0.015-0.234 0.027zM19.781 24.060c-0.206 0.062-0.67 0.231-1.031 0.374s-0.734 0.29-0.828 0.326c-0.095 0.036-0.172 0.094-0.172 0.128s0.035 0.050 0.078 0.035c0.043-0.016 0.247-0.078 0.453-0.138 1.005-0.293 2.156-0.729 2.156-0.817 0-0.059-0.289-0.019-0.656 0.092z"></path>
</symbol>
</defs>
</svg>
