<svg xmlns="http://www.w3.org/2000/svg" viewBox="0 0 32 32"><path d="M9.953 1.421c1.564-.072 2.063-.088 6.047-.088s4.483.017 6.045.088 2.629.32 3.563.681a7.2 7.2 0 0 1 2.597 1.693 7.16 7.16 0 0 1 1.691 2.596c.363.933.611 2 .683 3.56.072 1.567.088 2.065.088 6.048s-.017 4.483-.088 6.047c-.071 1.56-.32 2.627-.683 3.56a7.2 7.2 0 0 1-1.69 2.598l-.001.001a7.2 7.2 0 0 1-2.597 1.691c-.933.363-2 .611-3.56.683-1.565.072-2.064.088-6.048.088s-4.483-.017-6.047-.088c-1.56-.071-2.627-.32-3.56-.683a7.2 7.2 0 0 1-2.598-1.69l-.001-.001a7.2 7.2 0 0 1-1.675-2.548l-.017-.049c-.361-.933-.609-2-.681-3.56-.072-1.567-.088-2.065-.088-6.048s.017-4.483.088-6.045.32-2.629.681-3.563a7.24 7.24 0 0 1 1.692-2.596l.001-.001A7.2 7.2 0 0 1 6.342 2.12l.049-.017c.933-.361 2-.609 3.56-.681zm11.974 2.64C20.38 3.99 19.916 3.976 16 3.976s-4.38.015-5.927.085c-1.431.065-2.207.304-2.724.505a4.6 4.6 0 0 0-1.687 1.096 4.55 4.55 0 0 0-1.086 1.655l-.01.031c-.201.517-.44 1.293-.505 2.724-.071 1.547-.085 2.011-.085 5.927s.015 4.38.085 5.927c.065 1.431.304 2.207.505 2.724a4.56 4.56 0 0 0 1.096 1.687 4.55 4.55 0 0 0 1.687 1.096c.517.201 1.293.44 2.724.505 1.547.071 2.009.085 5.927.085s4.38-.015 5.927-.085c1.431-.065 2.207-.304 2.724-.505a4.6 4.6 0 0 0 1.687-1.096 4.55 4.55 0 0 0 1.096-1.687c.201-.517.44-1.293.505-2.724.071-1.547.085-2.011.085-5.927s-.015-4.38-.085-5.927c-.065-1.431-.304-2.207-.505-2.724a4.6 4.6 0 0 0-1.096-1.687 4.6 4.6 0 0 0-1.655-1.086l-.031-.01c-.517-.201-1.293-.44-2.724-.505zm-7.8 16.46a4.892 4.892 0 0 0 5.333-7.981 4.893 4.893 0 1 0-5.365 7.969zm-3.458-9.852a7.54 7.54 0 0 1 10.662 10.662 7.54 7.54 0 0 1-10.662-10.662m14.542-1.085a1.783 1.783 0 1 0-2.52-2.521l-.001.001a1.783 1.783 0 0 0 2.521 2.519l-.001.001z"/></svg>
