<svg xmlns="http://www.w3.org/2000/svg" viewBox="0 0 32 32"><path d="M12.572 11.959h4.952v2.467c.713-1.419 2.543-2.693 5.291-2.693 5.268 0 6.519 2.824 6.519 8.005v9.596h-5.333v-8.416c0-2.951-.713-4.615-2.529-4.615-2.519 0-3.565 1.793-3.565 4.613v8.417h-5.333V11.958zM3.427 29.107H8.76V11.732H3.427zm6.097-23.04v.002c0 .939-.384 1.789-1.004 2.401a3.42 3.42 0 0 1-2.418.997h-.009a3.45 3.45 0 0 1-2.424-.996 3.378 3.378 0 0 1 .001-4.808 3.43 3.43 0 0 1 2.422-.996h.002a3.45 3.45 0 0 1 2.425.996 3.38 3.38 0 0 1 1.004 2.404z"/></svg>
