<svg xmlns="http://www.w3.org/2000/svg" viewBox="0 0 32 32"><path d="M31.333 8.676a3.73 3.73 0 0 0-1.02-1.692l-.002-.002a4.06 4.06 0 0 0-1.756-.983l-.028-.006c-2.504-.66-12.536-.66-12.536-.66a103 103 0 0 0-12.993.671l.473-.044a4.2 4.2 0 0 0-1.786 1.015l.002-.002A3.86 3.86 0 0 0 .65 8.674c-.414 2.128-.651 4.576-.651 7.079l.001.26V16a38.7 38.7 0 0 0 .651 7.325c.183.639.539 1.221 1.033 1.692s1.111.811 1.788.991c2.537.659 12.52.659 12.52.659a103 103 0 0 0 13.01-.671l-.474.044a4.1 4.1 0 0 0 1.786-.991l-.002.002a3.7 3.7 0 0 0 1.014-1.667l.006-.026c.425-2.13.669-4.578.669-7.083L32 16.018v.013a35.586 35.586 0 0 0-.706-7.584l.039.228zm-18.53 11.889v-9.129l8.347 4.565z"/></svg>
