<svg aria-hidden="true" style="position: absolute; width: 0; height: 0; overflow: hidden;" version="1.1" xmlns="http://www.w3.org/2000/svg" xmlns:xlink="http://www.w3.org/1999/xlink">
<defs>
<symbol id="logo-issf-world-cup-baku2023" viewBox="0 0 22 32">
<path d="M8.536 0.553c-0.851 0.302-1.391 1.051-1.391 1.936-0.004 0.417 0.051 0.634 0.243 0.996l0.14 0.272-0.421 0.455c-0.234 0.251-0.455 0.481-0.489 0.511s-0.064 0.068-0.064 0.089c0 0.064 14.8 0.043 14.979-0.017 0.404-0.14 0.455-0.783 0.077-0.992-0.077-0.047-1.174-0.055-5.43-0.060h-5.328l0.123-0.226c0.374-0.668 0.345-1.494-0.072-2.14-0.213-0.328-0.464-0.545-0.86-0.736-0.298-0.145-0.349-0.153-0.787-0.166-0.387-0.009-0.511 0.004-0.719 0.077zM7.787 5.557c-0.353 0.217-0.638 0.438-0.817 0.634-0.191 0.204-0.417 0.702-0.472 1.034l-0.051 0.298-0.204-0.413c-0.204-0.413-0.677-1.064-0.834-1.149-0.098-0.055-0.064-0.106-0.783 1.23-0.621 1.157-0.732 1.392-0.834 1.796-0.243 0.945-0.094 1.851 0.43 2.651 0.434 0.664 1 1.098 2.14 1.66 0.83 0.409 1.549 0.702 3.319 1.362 1.417 0.528 1.809 0.711 2.502 1.153 0.157 0.102 0.302 0.187 0.323 0.187 0.047 0 0.557 0.468 1.004 0.919 0.855 0.864 1.451 1.949 1.706 3.089 0.089 0.383 0.102 1.392 0.021 1.757-0.251 1.179-0.745 2.089-1.562 2.868-0.826 0.791-1.906 1.34-3.068 1.562l-0.396 0.077v2.187l0.545-0.017c1.183-0.026 2.472-0.332 3.574-0.851 2.562-1.196 4.306-3.587 4.647-6.37 0.085-0.672 0.034-2.017-0.102-2.647-0.353-1.681-1.157-3.072-2.434-4.238-0.396-0.362-0.974-0.796-2.060-1.549-2.311-1.6-3.060-2.298-3.392-3.162-0.149-0.379-0.153-0.894-0.017-1.247 0.413-1.072 1.868-2.208 3.57-2.787l0.54-0.183-0.362-0.004c-1.149 0-2.357 0.217-3.179 0.579-0.596 0.264-1.332 0.885-1.66 1.4-0.064 0.106-0.128 0.191-0.14 0.191s-0.047-0.179-0.072-0.4c-0.060-0.502-0.157-0.728-0.468-1.051-0.238-0.251-0.945-0.762-1.047-0.762-0.030 0-0.196 0.089-0.37 0.196zM2.94 15.579c-0.536 0.608-0.894 1.098-1.238 1.698-0.681 1.192-1.128 2.626-1.217 3.902l-0.030 0.396h1.332v-0.145c0-0.081 0.030-0.37 0.064-0.638 0.217-1.647 0.97-3.247 2.106-4.464 0.162-0.174 0.298-0.336 0.298-0.357 0-0.017-0.196-0.23-0.434-0.468l-0.438-0.43zM5.145 17.728c-0.902 1.047-1.447 2.281-1.591 3.579l-0.030 0.268h1.243v-0.166c0-0.285 0.085-0.808 0.196-1.192 0.192-0.664 0.519-1.264 1.013-1.847l0.234-0.272-0.34-0.37c-0.191-0.2-0.357-0.366-0.379-0.366-0.017 0-0.174 0.166-0.345 0.366zM0.54 23.37c0.553 3.532 2.974 6.366 6.485 7.587 0.438 0.153 1.264 0.37 1.604 0.426l0.179 0.030v-0.579c0-0.46-0.013-0.579-0.060-0.579-0.030 0-0.26-0.060-0.515-0.132-2.166-0.621-4.132-2.060-5.226-3.826-0.464-0.753-0.885-1.86-1.060-2.791l-0.098-0.528h-1.37z"></path>
<path d="M3.574 23.021c0 0.021 0.038 0.23 0.081 0.46 0.455 2.34 2.098 4.038 4.536 4.689 0.255 0.072 0.502 0.128 0.545 0.128 0.068 0 0.072-0.077 0.072-1.021v-1.021l-0.115-0.026c-1.26-0.268-2.247-0.877-2.957-1.821-0.238-0.315-0.591-0.962-0.706-1.298l-0.047-0.132h-0.702c-0.426 0-0.706 0.017-0.706 0.043zM18.485 26.196c-1.719 2.779-4.643 4.4-7.762 4.311l-0.511-0.017v1.043h0.447c0.553 0 1.251-0.094 1.881-0.255 2.119-0.549 4.047-1.983 5.404-4.021 0.289-0.438 0.843-1.417 0.813-1.447-0.013-0.013-0.132 0.162-0.272 0.387z"></path>
</symbol>
<symbol id="logo-asf" viewBox="0 0 32 32">
<path d="M17.523 6.407c0.024-0.062 0.121-0.094 0.288-0.094h0.252v0.616l0.359 0.040c0.198 0.022 0.598 0.082 0.891 0.134s0.781 0.177 1.087 0.279c0.306 0.102 0.836 0.329 1.18 0.506s0.853 0.489 1.132 0.694c0.279 0.205 0.741 0.613 1.026 0.906s0.699 0.804 0.92 1.136c0.221 0.332 0.512 0.841 0.646 1.132s0.316 0.756 0.404 1.035 0.204 0.757 0.257 1.062c0.053 0.305 0.097 0.688 0.097 0.851v0.297h0.632l-0.038 0.532-0.576 0.037-0.040 0.513c-0.022 0.282-0.098 0.752-0.168 1.044s-0.198 0.725-0.283 0.962c-0.085 0.237-0.295 0.701-0.465 1.031s-0.489 0.839-0.709 1.131-0.642 0.764-0.939 1.048c-0.296 0.284-0.82 0.701-1.164 0.927s-0.874 0.517-1.178 0.649c-0.304 0.132-0.747 0.297-0.984 0.367s-0.666 0.171-0.954 0.224c-0.287 0.054-0.659 0.098-0.825 0.098h-0.302l-0.038 0.656h-0.5l-0.011-0.625-0.526-0.044c-0.289-0.024-0.863-0.13-1.276-0.234-0.546-0.138-0.971-0.299-1.563-0.592-0.447-0.222-1.054-0.586-1.349-0.81s-0.765-0.647-1.043-0.941c-0.278-0.294-0.667-0.779-0.863-1.077s-0.479-0.804-0.629-1.124c-0.149-0.32-0.343-0.827-0.43-1.128s-0.2-0.8-0.25-1.111c-0.050-0.31-0.092-0.663-0.092-0.783v-0.219l-0.625 0.043v-0.575h0.608l0.043-0.479c0.024-0.264 0.087-0.693 0.141-0.953s0.182-0.713 0.285-1.005c0.103-0.292 0.309-0.77 0.458-1.063s0.383-0.698 0.521-0.902c0.138-0.204 0.413-0.556 0.611-0.781s0.558-0.586 0.8-0.801 0.608-0.505 0.815-0.644c0.206-0.139 0.614-0.375 0.906-0.523s0.789-0.357 1.104-0.462c0.315-0.105 0.807-0.234 1.094-0.285s0.691-0.111 0.899-0.133l0.378-0.040-0.025-0.214c-0.014-0.118-0.009-0.256 0.011-0.308zM17.156 7.478c-0.103 0.012-0.398 0.053-0.656 0.091s-0.736 0.153-1.063 0.257c-0.327 0.103-0.844 0.312-1.15 0.463s-0.774 0.432-1.041 0.624c-0.267 0.192-0.69 0.551-0.94 0.797s-0.617 0.667-0.817 0.935c-0.199 0.268-0.503 0.769-0.676 1.114s-0.383 0.856-0.468 1.137c-0.085 0.281-0.198 0.761-0.251 1.066s-0.096 0.664-0.096 0.797v0.242h1.669l0.039-0.453c0.022-0.249 0.092-0.636 0.158-0.859s0.192-0.586 0.282-0.806c0.090-0.22 0.296-0.614 0.458-0.875 0.164-0.264 0.545-0.726 0.86-1.041 0.352-0.353 0.766-0.689 1.096-0.892 0.292-0.179 0.743-0.407 1.003-0.508s0.71-0.226 1-0.28c0.291-0.054 0.627-0.112 0.747-0.129l0.219-0.031v-0.844c0-0.713-0.015-0.842-0.094-0.834-0.052 0.005-0.178 0.019-0.281 0.031zM18.063 8.28v0.84l0.234 0.037c0.129 0.020 0.403 0.065 0.609 0.1s0.558 0.122 0.781 0.194c0.223 0.072 0.575 0.215 0.781 0.318s0.53 0.286 0.719 0.406 0.565 0.433 0.835 0.695c0.27 0.262 0.611 0.644 0.758 0.851s0.366 0.572 0.486 0.813c0.12 0.241 0.29 0.663 0.377 0.939s0.192 0.733 0.233 1.016l0.075 0.514h1.611v-0.203c0-0.112-0.042-0.461-0.093-0.776s-0.166-0.804-0.255-1.086c-0.089-0.282-0.259-0.725-0.377-0.984s-0.375-0.713-0.571-1.007c-0.196-0.295-0.582-0.773-0.858-1.062s-0.71-0.68-0.965-0.87c-0.255-0.19-0.721-0.48-1.036-0.646s-0.865-0.397-1.224-0.514c-0.358-0.117-0.849-0.242-1.089-0.278s-0.571-0.081-0.734-0.1l-0.297-0.034v0.84zM16.603 9.727c-0.236 0.051-0.63 0.172-0.877 0.27s-0.616 0.277-0.822 0.397-0.568 0.383-0.806 0.584c-0.238 0.201-0.584 0.562-0.769 0.803s-0.46 0.691-0.61 1c-0.151 0.309-0.329 0.787-0.396 1.063s-0.14 0.648-0.162 0.828l-0.040 0.328h1.692v-0.216c0-0.119 0.070-0.435 0.155-0.703s0.261-0.666 0.39-0.885c0.13-0.219 0.433-0.584 0.674-0.813s0.633-0.518 0.876-0.645c0.241-0.126 0.607-0.273 0.813-0.326s0.473-0.111 0.593-0.129l0.219-0.033v-1.625l-0.25 0.005c-0.137 0.003-0.443 0.046-0.678 0.097zM18.063 10.468c0 0.758 0.004 0.781 0.141 0.81 0.077 0.016 0.304 0.061 0.503 0.1s0.581 0.18 0.849 0.313c0.277 0.139 0.662 0.404 0.894 0.617 0.224 0.205 0.526 0.556 0.672 0.779s0.334 0.606 0.419 0.85c0.085 0.244 0.171 0.584 0.191 0.754l0.037 0.309h1.679l-0.044-0.359c-0.024-0.198-0.111-0.592-0.192-0.877s-0.258-0.735-0.391-1c-0.133-0.265-0.374-0.658-0.535-0.872s-0.466-0.547-0.679-0.739-0.583-0.473-0.824-0.623c-0.241-0.15-0.648-0.356-0.906-0.459s-0.686-0.231-0.951-0.285c-0.265-0.054-0.567-0.099-0.672-0.099h-0.19v0.78zM17.344 11.795c-0.069 0.012-0.252 0.053-0.406 0.092s-0.478 0.168-0.718 0.287c-0.288 0.143-0.58 0.36-0.859 0.64-0.302 0.302-0.486 0.555-0.643 0.887-0.121 0.255-0.257 0.645-0.303 0.866l-0.082 0.402 0.474 0.031c0.395 0.026 0.478 0.050 0.496 0.146 0.012 0.063 0.005 0.182-0.016 0.266-0.036 0.142-0.065 0.151-0.474 0.151h-0.436v0.176c0 0.097 0.045 0.329 0.1 0.516s0.188 0.508 0.297 0.715 0.382 0.56 0.607 0.787c0.261 0.262 0.557 0.485 0.815 0.612 0.223 0.11 0.559 0.24 0.746 0.29s0.397 0.091 0.466 0.092c0.114 0.001 0.125-0.041 0.125-0.484v-0.485h0.5l0.036 0.986 0.294-0.035c0.162-0.019 0.491-0.108 0.733-0.198s0.618-0.298 0.838-0.463c0.22-0.165 0.535-0.48 0.7-0.7s0.371-0.588 0.456-0.819c0.085-0.231 0.173-0.555 0.195-0.72l0.040-0.3h-1.043v-0.5l0.516-0.018c0.485-0.017 0.516-0.026 0.515-0.156 0-0.076-0.042-0.293-0.092-0.481s-0.183-0.525-0.296-0.747c-0.122-0.239-0.37-0.57-0.611-0.813-0.223-0.225-0.575-0.498-0.781-0.607s-0.53-0.239-0.719-0.291c-0.189-0.052-0.435-0.11-0.547-0.129l-0.203-0.035v1.004l-0.531-0.038-0.008-0.456c-0.004-0.251-0.018-0.463-0.031-0.473s-0.080-0.007-0.148 0.005zM17.198 13.514c-0.114 0.038-0.344 0.192-0.511 0.342s-0.366 0.404-0.444 0.565c-0.1 0.207-0.141 0.403-0.14 0.671 0.001 0.255 0.049 0.486 0.145 0.708 0.086 0.197 0.255 0.428 0.42 0.573 0.152 0.134 0.406 0.287 0.565 0.341s0.405 0.098 0.548 0.098 0.387-0.044 0.544-0.097c0.157-0.053 0.402-0.197 0.545-0.32s0.334-0.367 0.425-0.543c0.128-0.248 0.165-0.413 0.167-0.728 0.001-0.295-0.036-0.485-0.137-0.694-0.076-0.158-0.24-0.388-0.363-0.511s-0.327-0.274-0.452-0.335c-0.137-0.067-0.402-0.117-0.666-0.126-0.241-0.008-0.531 0.016-0.645 0.055zM10 15.789c0 0.142 0.043 0.507 0.097 0.813s0.195 0.85 0.316 1.211c0.121 0.361 0.333 0.867 0.472 1.125s0.383 0.652 0.542 0.875c0.159 0.223 0.509 0.635 0.777 0.914s0.733 0.683 1.033 0.896c0.3 0.214 0.799 0.51 1.108 0.659s0.781 0.342 1.049 0.43c0.267 0.088 0.731 0.203 1.031 0.255s0.672 0.095 0.826 0.096h0.281l-0.023-1.593-0.56-0.075c-0.308-0.041-0.775-0.147-1.037-0.235s-0.669-0.257-0.904-0.375c-0.235-0.118-0.654-0.386-0.932-0.596s-0.657-0.555-0.842-0.769c-0.185-0.214-0.422-0.515-0.527-0.67s-0.282-0.464-0.394-0.688c-0.113-0.223-0.268-0.591-0.344-0.816s-0.173-0.619-0.214-0.875-0.087-0.55-0.101-0.653l-0.027-0.188h-1.625v0.257zM12.918 15.549l-0.8 0.018 0.041 0.295c0.022 0.162 0.080 0.47 0.127 0.685s0.171 0.609 0.274 0.877c0.103 0.268 0.326 0.697 0.495 0.954s0.5 0.66 0.735 0.895 0.637 0.565 0.892 0.733c0.255 0.168 0.676 0.393 0.936 0.502s0.726 0.249 1.036 0.313c0.31 0.064 0.634 0.117 0.72 0.117l0.156 0.001-0.026-1.656-0.299-0.044c-0.164-0.024-0.493-0.106-0.729-0.182s-0.631-0.27-0.876-0.43c-0.245-0.161-0.562-0.42-0.705-0.576s-0.36-0.435-0.482-0.62c-0.122-0.185-0.293-0.525-0.38-0.757s-0.176-0.577-0.199-0.767c-0.022-0.19-0.058-0.352-0.079-0.359s-0.398-0.006-0.838 0.004zM22.59 15.547l-0.816 0.019-0.079 0.47c-0.053 0.318-0.171 0.654-0.365 1.041-0.211 0.422-0.394 0.679-0.699 0.983-0.227 0.227-0.581 0.514-0.788 0.639s-0.555 0.288-0.776 0.362c-0.221 0.074-0.537 0.151-0.703 0.17l-0.302 0.036v1.684l0.359-0.045c0.197-0.025 0.57-0.098 0.828-0.163s0.729-0.246 1.046-0.402c0.317-0.156 0.788-0.452 1.046-0.657s0.641-0.588 0.849-0.851c0.209-0.262 0.49-0.697 0.625-0.966s0.314-0.722 0.396-1.007c0.082-0.285 0.17-0.707 0.195-0.94s0.035-0.416 0.022-0.408c-0.013 0.008-0.39 0.022-0.839 0.033zM23.905 15.938c-0.024 0.223-0.095 0.608-0.158 0.855s-0.201 0.654-0.305 0.906c-0.105 0.252-0.326 0.669-0.492 0.927s-0.468 0.649-0.672 0.869c-0.204 0.22-0.548 0.534-0.765 0.698s-0.64 0.425-0.941 0.581c-0.301 0.156-0.796 0.355-1.099 0.443s-0.744 0.178-0.98 0.2l-0.429 0.040v1.607h0.287c0.158 0 0.564-0.056 0.902-0.125s0.863-0.212 1.166-0.318c0.303-0.106 0.762-0.307 1.020-0.446s0.652-0.382 0.875-0.539c0.223-0.157 0.673-0.554 1-0.882s0.726-0.796 0.888-1.039c0.162-0.243 0.423-0.707 0.581-1.031s0.355-0.813 0.438-1.088 0.195-0.75 0.247-1.055 0.096-0.657 0.096-0.781v-0.226h-1.614l-0.043 0.406z"></path>
<path fill="#0080c7" style="fill: var(--color2, #0080c7)" d="M28.039 5.438c0.026 0.052 0.137 0.234 0.246 0.406s0.333 0.58 0.497 0.906c0.164 0.327 0.419 0.893 0.566 1.259s0.354 0.965 0.459 1.331c0.105 0.366 0.246 0.953 0.313 1.303s0.156 0.929 0.197 1.285c0.047 0.407 0.063 1.15 0.043 2-0.023 0.989-0.067 1.554-0.164 2.102-0.073 0.413-0.219 1.058-0.323 1.436s-0.332 1.066-0.506 1.531c-0.174 0.465-0.476 1.169-0.673 1.564s-0.517 0.976-0.712 1.291c-0.195 0.314-0.557 0.835-0.803 1.156s-0.788 0.923-1.203 1.336c-0.415 0.414-1.078 0.993-1.474 1.288s-0.961 0.681-1.257 0.858c-0.296 0.177-0.859 0.474-1.25 0.66s-1.039 0.451-1.44 0.589c-0.401 0.138-1.047 0.321-1.438 0.407s-1.089 0.22-1.553 0.296c-0.681 0.113-1.103 0.141-2.188 0.144-0.786 0.002-1.577-0.029-1.906-0.076-0.309-0.044-0.885-0.152-1.278-0.24s-1.011-0.258-1.372-0.379c-0.361-0.121-0.905-0.328-1.21-0.46s-0.786-0.367-1.071-0.522c-0.284-0.155-0.768-0.447-1.075-0.648s-0.839-0.593-1.183-0.87-0.963-0.852-1.376-1.277c-0.413-0.425-0.996-1.099-1.295-1.498s-0.718-1.017-0.932-1.375c-0.214-0.358-0.548-1.002-0.744-1.432s-0.472-1.139-0.614-1.575-0.312-1.027-0.378-1.312c-0.066-0.285-0.171-0.828-0.235-1.206-0.090-0.539-0.115-1.027-0.115-2.263 0-0.866-0.018-1.555-0.041-1.531s-0.101 0.339-0.174 0.7c-0.073 0.361-0.188 1.129-0.256 1.707s-0.123 1.272-0.123 1.543 0.056 0.972 0.124 1.557c0.068 0.585 0.184 1.339 0.256 1.675s0.23 0.935 0.349 1.33c0.12 0.395 0.344 1.028 0.498 1.406s0.437 0.982 0.629 1.342c0.192 0.36 0.503 0.894 0.692 1.188s0.558 0.814 0.82 1.157c0.262 0.343 0.813 0.964 1.226 1.38s1.017 0.969 1.344 1.229c0.327 0.26 0.903 0.674 1.281 0.92s1.081 0.641 1.563 0.877 1.152 0.532 1.491 0.656c0.339 0.125 0.968 0.323 1.397 0.441s1.165 0.273 1.634 0.344 0.993 0.158 1.165 0.193c0.174 0.035 0.854 0.052 1.531 0.039 0.706-0.014 1.521-0.069 1.938-0.132 0.395-0.059 1.042-0.18 1.438-0.268s1.084-0.28 1.531-0.428c0.447-0.147 1.116-0.401 1.486-0.564s1.015-0.492 1.432-0.731c0.417-0.239 1.028-0.626 1.357-0.86s0.913-0.696 1.296-1.026 0.933-0.861 1.22-1.179c0.287-0.318 0.708-0.818 0.935-1.11s0.576-0.784 0.776-1.094c0.199-0.309 0.525-0.872 0.723-1.25s0.49-1.010 0.649-1.405c0.158-0.395 0.386-1.054 0.505-1.465s0.285-1.115 0.367-1.564 0.184-1.21 0.225-1.691c0.045-0.52 0.059-1.217 0.036-1.719-0.022-0.464-0.094-1.211-0.16-1.661s-0.195-1.121-0.286-1.492c-0.091-0.372-0.277-0.998-0.413-1.392s-0.383-1.021-0.55-1.393c-0.167-0.372-0.5-1.009-0.741-1.416s-0.609-0.978-0.818-1.27c-0.209-0.292-0.509-0.672-0.667-0.844s-0.266-0.27-0.24-0.219z"></path>
<path fill="#ff161f" style="fill: var(--color3, #ff161f)" d="M13.487 0.409c-0.019 0.019-0.382 0.105-0.807 0.191s-1.118 0.271-1.539 0.411c-0.421 0.14-1.153 0.444-1.625 0.676s-1.112 0.589-1.421 0.794c-0.309 0.205-0.773 0.543-1.031 0.752s-0.666 0.573-0.906 0.811-0.596 0.613-0.79 0.834c-0.194 0.222-0.513 0.628-0.71 0.903s-0.515 0.766-0.707 1.092c-0.192 0.325-0.486 0.902-0.654 1.281s-0.413 1.013-0.545 1.408c-0.132 0.395-0.313 1.073-0.401 1.506s-0.195 1.213-0.236 1.734c-0.058 0.732-0.058 1.157-0.001 1.869 0.041 0.507 0.146 1.273 0.233 1.703s0.284 1.157 0.438 1.616c0.153 0.459 0.446 1.176 0.65 1.594s0.565 1.054 0.802 1.415c0.236 0.361 0.577 0.839 0.756 1.063s0.571 0.656 0.87 0.961c0.299 0.305 0.769 0.745 1.044 0.978s0.776 0.608 1.112 0.833 0.941 0.576 1.344 0.781c0.402 0.204 1.002 0.472 1.332 0.595s0.935 0.308 1.344 0.41c0.409 0.103 1.081 0.234 1.494 0.291 0.464 0.064 1.167 0.104 1.844 0.104 0.685 0 1.373-0.039 1.841-0.105 0.411-0.058 1.118-0.2 1.571-0.316s1.075-0.308 1.381-0.426c0.306-0.118 0.738-0.306 0.96-0.417s0.628-0.349 0.903-0.529c0.275-0.179 0.648-0.46 0.828-0.623s0.328-0.317 0.328-0.341c0-0.024-0.218 0.062-0.484 0.192s-0.751 0.334-1.078 0.453c-0.327 0.119-0.811 0.276-1.075 0.348s-0.756 0.187-1.094 0.257c-0.444 0.091-0.972 0.136-1.906 0.162-0.841 0.023-1.507 0.010-1.906-0.039-0.338-0.041-0.933-0.145-1.323-0.232s-1.037-0.269-1.438-0.407c-0.401-0.138-1.094-0.429-1.541-0.648s-1.066-0.566-1.375-0.771c-0.309-0.205-0.83-0.595-1.156-0.867s-0.807-0.732-1.069-1.022-0.629-0.738-0.818-0.996c-0.189-0.258-0.487-0.71-0.664-1.004s-0.445-0.815-0.596-1.156c-0.151-0.341-0.361-0.889-0.466-1.218s-0.234-0.78-0.285-1.005c-0.052-0.224-0.156-0.842-0.23-1.372-0.116-0.827-0.131-1.146-0.102-2.245 0.027-1.046 0.062-1.415 0.191-2.013 0.087-0.402 0.259-1.035 0.383-1.406s0.38-0.998 0.57-1.394c0.189-0.395 0.551-1.028 0.804-1.406s0.694-0.954 0.982-1.279c0.287-0.325 0.817-0.855 1.178-1.178s0.989-0.81 1.398-1.084c0.408-0.273 1.013-0.633 1.344-0.798s0.881-0.406 1.223-0.533 0.932-0.313 1.313-0.411c0.38-0.098 0.994-0.223 1.365-0.277s1.081-0.1 1.578-0.101c0.497-0.002 1.136 0.012 1.419 0.031 0.496 0.033 0.506 0.031 0.266-0.051-0.137-0.047-0.517-0.133-0.844-0.192s-0.643-0.132-0.702-0.163-0.878-0.056-1.818-0.056-1.725 0.015-1.743 0.034z"></path>
<path fill="#00b66d" style="fill: var(--color4, #00b66d)" d="M16.031 2.787c-0.103 0.015-0.406 0.056-0.673 0.092s-0.759 0.137-1.094 0.224c-0.335 0.087-0.848 0.251-1.142 0.364s-0.743 0.311-1 0.44c-0.257 0.129-0.706 0.389-0.998 0.579s-0.728 0.507-0.969 0.704c-0.241 0.198-0.665 0.594-0.943 0.882s-0.678 0.756-0.889 1.041c-0.21 0.285-0.537 0.791-0.726 1.125s-0.455 0.888-0.593 1.232-0.32 0.906-0.405 1.25c-0.085 0.344-0.191 0.85-0.234 1.125s-0.077 0.95-0.075 1.5c0.003 0.737 0.039 1.192 0.137 1.73 0.073 0.402 0.231 1.029 0.351 1.394s0.332 0.908 0.472 1.207c0.14 0.299 0.385 0.755 0.544 1.013s0.463 0.694 0.677 0.969c0.213 0.275 0.621 0.731 0.907 1.014s0.53 0.504 0.542 0.492c0.012-0.012-0.128-0.221-0.311-0.465s-0.468-0.67-0.633-0.948c-0.165-0.278-0.411-0.76-0.546-1.071s-0.326-0.837-0.425-1.169-0.223-0.871-0.277-1.198c-0.054-0.327-0.116-0.875-0.138-1.219s-0.009-0.959 0.030-1.367c0.038-0.408 0.127-0.999 0.197-1.312s0.197-0.781 0.283-1.039c0.086-0.258 0.305-0.779 0.486-1.157s0.457-0.884 0.611-1.125 0.456-0.654 0.669-0.918c0.213-0.264 0.632-0.71 0.932-0.991s0.837-0.706 1.194-0.945c0.357-0.239 0.849-0.535 1.092-0.658s0.682-0.315 0.976-0.428 0.87-0.282 1.283-0.376c0.614-0.14 0.948-0.177 1.844-0.2 0.919-0.024 1.217-0.008 1.867 0.103 0.425 0.072 1.062 0.229 1.416 0.347s0.937 0.356 1.297 0.529c0.36 0.173 0.956 0.515 1.323 0.76s0.936 0.703 1.264 1.017 0.819 0.866 1.090 1.228c0.272 0.362 0.659 0.983 0.861 1.381s0.469 1.037 0.593 1.421c0.124 0.384 0.226 0.739 0.226 0.789s0.030 0.11 0.067 0.133c0.047 0.029 0.054-0.051 0.024-0.262-0.024-0.167-0.097-0.571-0.162-0.897s-0.207-0.861-0.314-1.188-0.313-0.847-0.457-1.156c-0.144-0.309-0.419-0.816-0.612-1.125s-0.537-0.794-0.764-1.076c-0.227-0.283-0.658-0.741-0.957-1.018s-0.797-0.686-1.106-0.907c-0.309-0.222-0.928-0.584-1.375-0.805s-1.072-0.487-1.389-0.592c-0.317-0.105-0.88-0.25-1.25-0.322-0.453-0.089-0.991-0.139-1.642-0.154-0.533-0.012-1.053-0.010-1.156 0.005z"></path>
</symbol>
<symbol id="logo-amada" viewBox="0 0 104 32">
<path fill="#000" style="fill: var(--color5, #000)" d="M33.77 20.925l0.635 1.679h2.814l-4.993-12.936h-3.041l-4.993 12.936h2.814l0.635-1.679zM30.729 12.982l2.043 5.311h-4.085z"></path>
<path fill="#000" style="fill: var(--color5, #000)" d="M33.77 20.925l0.635 1.679h2.814l-4.993-12.936h-3.041l-4.993 12.936h2.814l0.635-1.679zM30.729 12.982l2.043 5.311h-4.085zM54.831 22.559v-12.936h-2.86l-3.813 9.713-3.813-9.713h-2.86v12.936h2.587v-6.4l2.542 6.445h3.087l2.496-6.445v6.4z"></path>
<path fill="#000" style="fill: var(--color5, #000)" d="M54.831 22.559v-12.936h-2.86l-3.813 9.713-3.813-9.713h-2.86v12.936h2.587v-6.4l2.542 6.445h3.087l2.496-6.445v6.4zM68.584 20.925l0.635 1.679h2.814l-4.993-12.936h-3.041l-4.993 12.936h2.814l0.635-1.679zM65.543 12.982l2.043 5.311h-4.085z"></path>
<path fill="#000" style="fill: var(--color5, #000)" d="M68.584 20.925l0.635 1.679h2.814l-4.993-12.936h-3.041l-4.993 12.936h2.814l0.635-1.679zM65.543 12.982l2.043 5.311h-4.085z"></path>
<path fill="#000" style="fill: var(--color5, #000)" d="M88.102 16.113c0-3.54-2.905-6.445-6.445-6.445h-5.401v12.891h5.447c3.54 0 6.4-2.905 6.4-6.445zM78.888 12.255h2.814c2.133 0 3.813 1.725 3.813 3.813 0 2.133-1.725 3.813-3.813 3.813h-2.814z"></path>
<path fill="#000" style="fill: var(--color5, #000)" d="M100.494 20.925l0.635 1.679h2.814l-4.993-12.936h-3.041l-4.993 12.936h2.814l0.635-1.679zM97.452 12.982l2.043 5.311h-4.085z"></path>
<path fill="#ed1c24" style="fill: var(--color6, #ed1c24)" d="M17.112 22.060l-7.716-4.766 7.444-0.227c0.272 0 0.499-0.227 0.499-0.545v-5.719c0-0.182-0.091-0.318-0.227-0.409l-16.84-10.394v6.173c0 0.182 0.091 0.363 0.272 0.454l7.308 4.494-7.217 0.454c-0.227 0.091-0.363 0.272-0.363 0.499v5.719c0 0.182 0.091 0.363 0.272 0.454l16.885 10.394v-6.128c-0.045-0.182-0.136-0.363-0.318-0.454zM0.726 11.938c0.045 0 0.045 0.045 0 0 0.091 0.045 0.182 0 0.182-0.045v-0.045l7.308-0.454 8.579 5.265s0.045 0.045 0.091 0.045l-0.045-0.045c-0.045 0-0.136 0-0.136 0.045v0.045l-7.671 0.227-8.17-5.038zM16.885 16.794s0-0.045 0 0c0.045-0.045 0.045 0 0 0z"></path>
<path fill="#231f20" style="fill: var(--color7, #231f20)" d="M55.149 27.597q0-0.34-0.136-0.545c-0.091-0.136-0.182-0.272-0.318-0.409-0.136-0.091-0.318-0.182-0.499-0.227s-0.408-0.091-0.635-0.091c-0.136 0-0.272 0-0.454 0.045s-0.318 0.091-0.454 0.182-0.227 0.182-0.318 0.318-0.136 0.318-0.136 0.499 0.045 0.363 0.136 0.499 0.227 0.227 0.363 0.318 0.318 0.136 0.545 0.182c0.182 0.045 0.408 0.091 0.635 0.136s0.408 0.091 0.635 0.136c0.182 0.045 0.363 0.136 0.545 0.227s0.272 0.227 0.363 0.409 0.136 0.363 0.136 0.59c0 0.272-0.045 0.454-0.182 0.635-0.091 0.182-0.272 0.318-0.408 0.409-0.182 0.091-0.363 0.182-0.545 0.227-0.227 0.045-0.408 0.091-0.59 0.091-0.272 0-0.545-0.045-0.817-0.091s-0.454-0.182-0.681-0.318c-0.182-0.136-0.318-0.318-0.454-0.545-0.091-0.227-0.182-0.499-0.136-0.817h0.318q0 0.409 0.136 0.681c0.091 0.182 0.227 0.318 0.363 0.454 0.182 0.136 0.363 0.227 0.59 0.272s0.454 0.091 0.681 0.091c0.136 0 0.318 0 0.454-0.045 0.182-0.045 0.318-0.091 0.454-0.182s0.272-0.182 0.363-0.363q0.136-0.204 0.136-0.545c0-0.227-0.045-0.363-0.136-0.499s-0.227-0.227-0.363-0.318c-0.182-0.091-0.318-0.136-0.545-0.182-0.182-0.045-0.408-0.091-0.635-0.136s-0.408-0.091-0.635-0.136c-0.182-0.045-0.363-0.136-0.545-0.227-0.136-0.091-0.272-0.227-0.363-0.363s-0.136-0.363-0.136-0.59 0.045-0.454 0.136-0.59q0.136-0.272 0.408-0.409c0.182-0.091 0.318-0.182 0.545-0.227 0.182-0.045 0.408-0.091 0.59-0.091 0.272 0 0.499 0.045 0.726 0.091s0.408 0.136 0.59 0.272 0.318 0.272 0.408 0.454 0.182 0.409 0.182 0.681h-0.318zM57.282 26.462v-0.272h3.767v0.272h-1.725v4.675h-0.318v-4.675zM71.126 26.19h0.318l-1.997 2.86v2.088h-0.318v-2.088l-1.952-2.86h0.363l1.77 2.633zM76.8 28.641c0-0.363 0.045-0.681 0.182-0.999 0.091-0.318 0.272-0.59 0.454-0.817s0.454-0.409 0.726-0.545 0.635-0.182 0.999-0.182c0.272 0 0.545 0.045 0.772 0.136q0.34 0.136 0.545 0.272c0.136 0.091 0.272 0.227 0.363 0.363s0.182 0.272 0.227 0.363c0.045 0.136 0.091 0.227 0.091 0.318s0.045 0.136 0.045 0.136h-0.318c-0.045-0.227-0.091-0.409-0.182-0.545-0.091-0.182-0.227-0.318-0.363-0.409-0.136-0.136-0.318-0.182-0.499-0.272-0.182-0.045-0.363-0.091-0.59-0.091-0.318 0-0.59 0.045-0.862 0.182s-0.454 0.272-0.635 0.499-0.318 0.454-0.409 0.726-0.136 0.59-0.136 0.908 0.045 0.635 0.136 0.908 0.227 0.545 0.409 0.726c0.182 0.227 0.409 0.363 0.635 0.499 0.272 0.136 0.545 0.182 0.862 0.182q0.34 0 0.681-0.136t0.545-0.409c0.136-0.182 0.272-0.363 0.363-0.545 0.091-0.227 0.136-0.454 0.182-0.681h0.318c-0.045 0.272-0.091 0.545-0.227 0.817-0.136 0.227-0.272 0.454-0.454 0.635s-0.409 0.318-0.635 0.409-0.499 0.136-0.772 0.136c-0.363 0-0.681-0.045-0.999-0.182-0.272-0.136-0.545-0.318-0.726-0.545s-0.363-0.499-0.454-0.817c-0.227-0.318-0.272-0.681-0.272-1.044zM83.518 26.19h0.318v4.675h2.814v0.272h-3.132zM88.647 26.19h3.313v0.272h-2.996v1.997h2.814v0.272h-2.814v2.133h3.041v0.272h-3.359zM99.904 26.19h0.363l3.132 4.539v-4.539h0.318v4.948h-0.363l-3.132-4.584v4.584h-0.318zM65.952 31.138h0.318l-1.952-4.948h-0.318l-1.997 4.948h0.318l0.454-1.18 0.272-0.681 0.045-0.136 0.136-0.272 0.908-2.36h0.045l1.044 2.769 0.091 0.272zM97.543 31.138h0.363l-1.952-4.948h-0.363l-1.952 4.948h0.318l0.454-1.18 0.272-0.681 0.136-0.409 0.953-2.36 1.089 2.769 0.091 0.272z"></path>
</symbol>
<symbol id="logo-aze-moyas" viewBox="0 0 50 32">
<path fill="#00bd69" style="fill: var(--color8, #00bd69)" d="M39.75 0h-29.809c-0.001 0-0.002 0-0.003 0-5.488 0-9.937 4.449-9.937 9.937v0c0 5.488 4.449 9.937 9.937 9.937v0h29.616c5.236 0 9.727-3.973 10.107-9.196 0.018-0.222 0.028-0.48 0.028-0.74 0-5.489-4.449-9.938-9.938-9.939v0z"></path>
<path fill="#467082" style="fill: var(--color9, #467082)" d="M10.898 25.696h1.494v0.166c0 0.474-0.133 0.85-0.402 1.127s-0.636 0.423-1.093 0.423-0.843-0.153-1.14-0.444-0.448-0.69-0.448-1.195 0.153-0.905 0.444-1.2 0.675-0.44 1.14-0.44c0.012 0 0.025 0 0.039 0 0.346 0 0.666 0.111 0.927 0.299l-0.005-0.003c0.261 0.196 0.445 0.483 0.507 0.812l0.001 0.008-0.525 0.085c-0.035-0.224-0.15-0.416-0.315-0.549l-0.002-0.001c-0.163-0.123-0.369-0.198-0.592-0.198-0.014 0-0.027 0-0.041 0.001h0.002c-0.013-0.001-0.028-0.001-0.044-0.001-0.286 0-0.544 0.118-0.729 0.307v0c-0.192 0.205-0.29 0.5-0.29 0.884s0.098 0.675 0.29 0.88c0.185 0.19 0.443 0.308 0.728 0.308 0.016 0 0.032 0 0.047-0.001h-0.002c0.012 0.001 0.026 0.001 0.040 0.001 0.227 0 0.436-0.077 0.601-0.207l-0.002 0.002c0.167-0.133 0.274-0.338 0.312-0.613h-0.943zM15.622 24.573c0.294 0.295 0.444 0.697 0.444 1.205s-0.145 0.905-0.433 1.196-0.671 0.44-1.132 0.44-0.819-0.141-1.080-0.423-0.398-0.653-0.398-1.127v-0.29h2.524c-0.003-0.286-0.124-0.543-0.316-0.725v0c-0.183-0.164-0.427-0.265-0.694-0.265-0.013 0-0.026 0-0.038 0.001h0.002c-0.013-0.001-0.029-0.001-0.044-0.001-0.206 0-0.398 0.057-0.562 0.157l0.005-0.003c-0.156 0.097-0.271 0.248-0.319 0.426l-0.001 0.005-0.517-0.047c0.073-0.298 0.248-0.546 0.486-0.711l0.004-0.003c0.248-0.172 0.556-0.275 0.887-0.275 0.015 0 0.030 0 0.045 0.001h-0.002c0.464 0 0.843 0.146 1.139 0.44zM15.229 26.713c0.192-0.167 0.295-0.402 0.316-0.704h-2.012c0 0.003 0 0.006 0 0.009 0 0.263 0.101 0.502 0.266 0.681l-0.001-0.001c0.166 0.175 0.401 0.261 0.704 0.261 0.013 0.001 0.029 0.001 0.045 0.001 0.26 0 0.498-0.093 0.683-0.248l-0.002 0.001zM19.326 24.176v3.194h-0.431l-1.576-2.254v2.254h-0.508v-3.194h0.431l1.576 2.261v-2.261zM22.654 24.458c0.265 0.21 0.445 0.516 0.488 0.865l0.001 0.006-0.529 0.047c-0.032-0.237-0.15-0.441-0.323-0.583l-0.002-0.001c-0.168-0.128-0.381-0.206-0.612-0.206-0.012 0-0.023 0-0.034 0.001h0.002c-0.012-0.001-0.026-0.001-0.040-0.001-0.287 0-0.546 0.123-0.726 0.32l-0.001 0.001c-0.192 0.214-0.29 0.503-0.29 0.867s0.098 0.662 0.299 0.871c0.185 0.195 0.445 0.316 0.734 0.316 0.011 0 0.023 0 0.034-0.001h-0.002c0.008 0 0.018 0 0.028 0 0.23 0 0.443-0.076 0.615-0.203l-0.003 0.002c0.171-0.136 0.289-0.331 0.323-0.554l0.001-0.005 0.536 0.047c-0.051 0.348-0.232 0.645-0.492 0.847l-0.003 0.002c-0.26 0.198-0.59 0.317-0.947 0.317-0.014 0-0.028 0-0.042-0.001h0.002c-0.465 0-0.849-0.146-1.149-0.44s-0.449-0.69-0.449-1.2 0.153-0.905 0.444-1.2 0.679-0.44 1.149-0.44c0.010 0 0.023 0 0.035 0 0.36 0 0.692 0.122 0.955 0.328l-0.003-0.003zM24.357 24.176v2.741h1.511v0.453h-2.019v-3.194zM28.877 24.573c0.294 0.295 0.444 0.697 0.444 1.205s-0.145 0.905-0.435 1.195-0.671 0.44-1.132 0.44-0.82-0.141-1.080-0.423-0.398-0.653-0.398-1.127v-0.29h2.523c-0.003-0.286-0.123-0.543-0.315-0.725v0c-0.183-0.164-0.427-0.265-0.694-0.265-0.013 0-0.025 0-0.038 0.001h0.002c-0.013-0.001-0.029-0.001-0.044-0.001-0.206 0-0.398 0.057-0.562 0.157l0.005-0.003c-0.156 0.097-0.271 0.248-0.319 0.426l-0.001 0.005-0.517-0.047c0.073-0.298 0.249-0.546 0.487-0.711l0.004-0.003c0.248-0.172 0.555-0.274 0.886-0.274 0.017 0 0.035 0 0.052 0.001h-0.003c0.46 0 0.843 0.146 1.136 0.44zM28.483 26.713c0.192-0.167 0.294-0.402 0.316-0.704h-2.011c0 0.003 0 0.006 0 0.009 0 0.263 0.1 0.502 0.265 0.681l-0.001-0.001c0.167 0.175 0.402 0.261 0.705 0.261 0.013 0.001 0.029 0.001 0.044 0.001 0.26 0 0.498-0.093 0.683-0.248l-0.002 0.001zM32.525 27.37h-0.57l-0.675-1.221h-0.704v1.221h-0.508v-3.194h1.29c0.014-0.001 0.030-0.001 0.046-0.001 0.261 0 0.5 0.098 0.681 0.259l-0.001-0.001c0.183 0.175 0.277 0.418 0.277 0.73 0.001 0.013 0.001 0.027 0.001 0.042 0 0.193-0.054 0.373-0.148 0.526l0.002-0.004c-0.098 0.15-0.237 0.267-0.4 0.335l-0.006 0.002zM30.569 25.696h0.722c0.006 0 0.013 0 0.021 0 0.143 0 0.274-0.054 0.373-0.142h-0.001c0.095-0.091 0.154-0.219 0.154-0.36 0-0.012 0-0.023-0.001-0.034v0.002c0.001-0.010 0.001-0.021 0.001-0.033 0-0.144-0.059-0.274-0.154-0.368v0c-0.1-0.085-0.231-0.137-0.374-0.137-0.007 0-0.014 0-0.021 0h-0.721zM37.16 24.176l-1.346 3.194h-0.427l-1.341-3.194h0.547l1.008 2.415 1.008-2.417zM40.106 24.573c0.294 0.295 0.444 0.697 0.444 1.205s-0.145 0.905-0.435 1.195-0.67 0.44-1.132 0.44-0.819-0.141-1.080-0.423-0.398-0.653-0.398-1.127v-0.29h2.524c-0.003-0.286-0.124-0.543-0.316-0.725v0c-0.183-0.164-0.427-0.265-0.694-0.265-0.013 0-0.026 0-0.038 0.001h0.002c-0.013-0.001-0.029-0.001-0.044-0.001-0.206 0-0.398 0.057-0.562 0.157l0.005-0.003c-0.156 0.097-0.271 0.248-0.319 0.426l-0.001 0.005-0.517-0.047c0.073-0.298 0.248-0.546 0.486-0.711l0.004-0.003c0.248-0.172 0.555-0.274 0.886-0.274 0.017 0 0.035 0 0.052 0.001h-0.002c0.461 0 0.841 0.146 1.136 0.44zM39.713 26.713c0.192-0.167 0.295-0.402 0.316-0.704h-2.012c0 0.003 0 0.006 0 0.009 0 0.263 0.101 0.502 0.266 0.681l-0.001-0.001c0.166 0.175 0.401 0.261 0.704 0.261 0.013 0.001 0.029 0.001 0.045 0.001 0.26 0 0.498-0.093 0.683-0.248l-0.002 0.001zM9.937 28.008c0.055 0.054 0.090 0.129 0.090 0.212 0 0.001 0 0.002 0 0.002v0c0 0.002 0 0.005 0 0.008 0 0.081-0.034 0.154-0.090 0.205v0c-0.054 0.056-0.13 0.090-0.213 0.090s-0.159-0.035-0.213-0.090v0c-0.055-0.051-0.090-0.124-0.090-0.205 0-0.003 0-0.005 0-0.008v0c0 0 0-0.001 0-0.001 0-0.167 0.135-0.302 0.302-0.302 0.084 0 0.16 0.034 0.215 0.090v0zM9.962 28.806v3.194h-0.508v-3.194zM12.116 28.806c0.46 0 0.832 0.141 1.123 0.428s0.436 0.679 0.436 1.169-0.146 0.88-0.44 1.166c-0.279 0.268-0.658 0.432-1.076 0.432-0.018 0-0.036 0-0.054-0.001h-1.265v-3.194zM11.341 29.242v2.323h0.766c0.011 0 0.025 0.001 0.038 0.001 0.285 0 0.543-0.118 0.728-0.307v0c0.192-0.201 0.287-0.487 0.287-0.858s-0.094-0.661-0.287-0.862c-0.182-0.185-0.435-0.3-0.715-0.3-0.018 0-0.036 0-0.053 0.001h0.002zM17.784 28.806v3.194h-0.504v-2.084l-1.012 2.058h-0.329l-1.020-2.058v2.084h-0.508v-3.194h0.448l1.243 2.438 1.238-2.438zM20.142 28.806l1.354 3.194h-0.556l-0.29-0.713h-1.443l-0.295 0.713h-0.55l1.349-3.194zM19.933 29.549l-0.529 1.285h1.057zM24.591 28.806v3.194h-0.431l-1.576-2.254v2.254h-0.508v-3.194h0.428l1.579 2.259v-2.259zM29.119 28.806v3.194h-0.431l-1.577-2.254v2.254h-0.508v-3.194h0.427l1.579 2.259v-2.259zM31.472 28.806l1.353 3.194h-0.555l-0.29-0.713h-1.444l-0.294 0.713h-0.551l1.349-3.194zM31.263 29.549l-0.529 1.285h1.054zM35.612 28.806v0.383l-1.664 2.358h1.7v0.453h-2.345v-0.383l1.656-2.362h-1.614v-0.448zM36.757 28.008c0.055 0.054 0.090 0.129 0.090 0.212 0 0.001 0 0.002 0 0.002v0c0 0.002 0 0.005 0 0.008 0 0.081-0.035 0.154-0.090 0.205v0c-0.054 0.056-0.13 0.090-0.213 0.090s-0.159-0.035-0.213-0.090v0c-0.055-0.051-0.090-0.123-0.090-0.204 0-0.003 0-0.006 0-0.009v0c0 0 0 0 0 0 0-0.168 0.135-0.304 0.303-0.306v0c0.084 0 0.16 0.036 0.214 0.093v0zM36.782 28.806v3.194h-0.508v-3.194zM40.119 32h-0.572l-0.675-1.221h-0.704v1.221h-0.508v-3.194h1.29c0.014-0.001 0.029-0.001 0.045-0.001 0.261 0 0.5 0.098 0.681 0.259l-0.001-0.001c0.183 0.175 0.277 0.418 0.277 0.73 0.001 0.013 0.001 0.027 0.001 0.042 0 0.193-0.054 0.373-0.148 0.526l0.002-0.004c-0.098 0.15-0.237 0.267-0.4 0.335l-0.006 0.002zM38.162 30.326h0.722c0.006 0 0.013 0 0.021 0 0.143 0 0.274-0.054 0.373-0.142h-0.001c0.095-0.091 0.154-0.219 0.154-0.36 0-0.012 0-0.023-0.001-0.034v0.002c0.001-0.010 0.001-0.021 0.001-0.033 0-0.144-0.059-0.274-0.154-0.368v0c-0.1-0.085-0.231-0.137-0.374-0.137-0.007 0-0.014 0-0.021 0h-0.721zM41.275 28.806v2.741h1.511v0.453h-2.018v-3.194zM43.869 28.008c0.055 0.054 0.090 0.129 0.090 0.212 0 0.001 0 0.002 0 0.002v0c0 0.002 0 0.005 0 0.008 0 0.081-0.035 0.154-0.090 0.205v0c-0.054 0.056-0.13 0.090-0.213 0.090s-0.159-0.035-0.213-0.090v0c-0.055-0.051-0.090-0.124-0.090-0.205 0-0.003 0-0.005 0-0.008v0c0 0 0-0.001 0-0.001 0-0.167 0.135-0.302 0.302-0.302 0.084 0 0.16 0.034 0.215 0.090v0zM43.895 28.806v3.194h-0.508v-3.194zM47.376 28.806l-1.208 1.909v1.285h-0.504v-1.285l-1.212-1.909h0.589l0.875 1.405 0.871-1.405zM48.423 28.008c0.055 0.054 0.090 0.129 0.090 0.212 0 0.001 0 0.002 0 0.002v0c0 0.002 0 0.005 0 0.008 0 0.081-0.035 0.154-0.090 0.205v0c-0.054 0.056-0.13 0.090-0.214 0.090s-0.16-0.035-0.214-0.090v0c-0.055-0.052-0.090-0.125-0.090-0.206 0-0.002 0-0.005 0-0.007v0c0 0 0-0.001 0-0.001 0-0.083 0.034-0.159 0.090-0.213v0c0.054-0.055 0.13-0.090 0.214-0.090s0.159 0.034 0.214 0.090v0zM48.449 28.806v3.194h-0.508v-3.194z"></path>
<path fill="#fff" style="fill: var(--color1, #fff)" d="M16.209 12.521h-4.025l-1.030 3.379h-2.154l3.884-11.925h2.71l3.884 11.925h-2.222zM15.703 10.859l-1.517-4.878-1.5 4.878zM21.38 14.997l5.543-9.305h-5.872l0.253-1.717h8.347v0.903l-5.547 9.305h5.908l-0.253 1.717h-8.38zM32.361 3.975h7.769l0.253 1.717h-5.998v3.163h5.747l0.252 1.698h-5.999v3.631h5.999l-0.253 1.717h-7.77z"></path>
</symbol>
<symbol id="logo-issf" viewBox="0 0 26 32">
<path fill="#2b2a29" style="fill: var(--color10, #2b2a29)" d="M17.713 12.685c0 2.732-2.216 4.947-4.947 4.947-2.733 0-4.949-2.216-4.949-4.947 0-2.733 2.216-4.949 4.949-4.949 2.732 0 4.947 2.216 4.947 4.949zM4.606 31.913h1.549v-4.997h-1.549zM6.994 30.261l1.469-0.092c0.032 0.239 0.097 0.419 0.195 0.545 0.159 0.202 0.386 0.304 0.682 0.304 0.221 0 0.389-0.052 0.51-0.155 0.119-0.104 0.179-0.224 0.179-0.359 0-0.13-0.057-0.246-0.17-0.348-0.114-0.104-0.378-0.199-0.792-0.291q-1.015-0.228-1.449-0.607c-0.291-0.252-0.436-0.575-0.436-0.966 0-0.256 0.075-0.5 0.224-0.727 0.149-0.229 0.373-0.408 0.672-0.54q0.449-0.195 1.228-0.195c0.64 0 1.126 0.119 1.462 0.356 0.334 0.237 0.535 0.617 0.598 1.134l-1.455 0.085c-0.040-0.226-0.12-0.389-0.244-0.491s-0.296-0.154-0.513-0.154c-0.18 0-0.316 0.038-0.406 0.114-0.092 0.077-0.137 0.169-0.137 0.279 0 0.079 0.037 0.15 0.112 0.214 0.074 0.067 0.246 0.129 0.52 0.185 0.675 0.145 1.158 0.292 1.45 0.441s0.505 0.332 0.637 0.553c0.134 0.221 0.2 0.468 0.2 0.74q0 0.481-0.266 0.887c-0.179 0.271-0.426 0.475-0.744 0.615-0.319 0.14-0.72 0.211-1.205 0.211-0.849 0-1.439-0.164-1.766-0.491-0.326-0.328-0.511-0.744-0.555-1.248zM12.037 30.261l1.469-0.092c0.032 0.239 0.097 0.419 0.196 0.545 0.159 0.202 0.386 0.304 0.682 0.304 0.221 0 0.389-0.052 0.51-0.155 0.119-0.104 0.179-0.224 0.179-0.359 0-0.13-0.057-0.246-0.17-0.348-0.114-0.104-0.378-0.199-0.79-0.291-0.678-0.152-1.161-0.354-1.45-0.607-0.291-0.252-0.436-0.575-0.436-0.966 0-0.256 0.075-0.5 0.224-0.727 0.149-0.229 0.373-0.408 0.672-0.54q0.449-0.195 1.228-0.195c0.64 0 1.126 0.119 1.462 0.356 0.334 0.237 0.535 0.617 0.598 1.134l-1.455 0.085c-0.040-0.226-0.12-0.389-0.244-0.491s-0.296-0.154-0.513-0.154c-0.18 0-0.316 0.038-0.406 0.114-0.092 0.077-0.137 0.169-0.137 0.279 0 0.079 0.038 0.15 0.112 0.214 0.074 0.067 0.246 0.129 0.52 0.185 0.675 0.145 1.158 0.292 1.45 0.441s0.505 0.332 0.637 0.553c0.134 0.221 0.201 0.468 0.201 0.74q0 0.481-0.266 0.887c-0.177 0.271-0.426 0.475-0.744 0.615-0.319 0.14-0.72 0.211-1.205 0.211-0.849 0-1.439-0.164-1.766-0.491-0.326-0.328-0.511-0.744-0.555-1.248zM17.355 26.916h3.82v1.074h-2.267v0.872h1.936v1.009h-1.936v2.042h-1.552z"></path>
<path fill="#fecb2c" style="fill: var(--color11, #fecb2c)" d="M1.801 12.224c0.272-5.632 4.79-10.15 10.423-10.423v-1.801c-6.627 0.276-11.948 5.597-12.224 12.224z"></path>
<path fill="#e32a31" style="fill: var(--color12, #e32a31)" d="M13.305 1.801c5.632 0.272 10.15 4.79 10.423 10.423h1.801v-0.012c-0.282-6.62-5.602-11.937-12.224-12.212z"></path>
<path fill="#2d7cbf" style="fill: var(--color13, #2d7cbf)" d="M12.224 23.728c-5.632-0.272-10.15-4.79-10.423-10.423h-1.801c0.276 6.627 5.597 11.948 12.224 12.224z"></path>
<path fill="#229655" style="fill: var(--color14, #229655)" d="M23.728 13.305c-0.272 5.632-4.79 10.15-10.423 10.423v1.801c6.622-0.276 11.942-5.591 12.224-12.212v-0.012zM5.719 12.224c0.241-3.492 3.019-6.286 6.505-6.55v-1.803c-4.48 0.269-8.062 3.866-8.307 8.353z"></path>
<path fill="#2d7cbf" style="fill: var(--color13, #2d7cbf)" d="M13.305 5.674c3.485 0.264 6.264 3.058 6.505 6.55h1.803c-0.246-4.486-3.828-8.084-8.307-8.353z"></path>
<path fill="#fecb2c" style="fill: var(--color11, #fecb2c)" d="M19.803 13.305c-0.284 3.447-3.044 6.192-6.498 6.454v1.803c4.448-0.267 8.010-3.816 8.302-8.257z"></path>
<path fill="#e32a31" style="fill: var(--color12, #e32a31)" d="M12.224 19.759c-3.454-0.262-6.214-3.008-6.498-6.454h-1.804c0.292 4.441 3.855 7.99 8.302 8.257z"></path>
</symbol>
<symbol id="logo-nocar" viewBox="0 0 31 32">
<path fill="#000" style="fill: var(--color5, #000)" d="M2.549 2.43v22.485c0 1.774 1.438 3.212 3.212 3.212h8.584c0.618 0.451 1.027 1.171 1.056 1.988 0.029-0.817 0.438-1.537 1.056-1.988h8.577c1.774 0 3.212-1.438 3.212-3.212v-22.485z"></path>
<path fill="#fff" style="fill: var(--color1, #fff)" d="M15.401 28.739c-0.213-0.369-0.491-0.677-0.82-0.918l-0.008-0.006-0.101-0.075h-8.708c-1.559 0-2.827-1.268-2.827-2.826v-22.099h24.926v22.099c0 1.559-1.268 2.826-2.827 2.826h-8.704l-0.101 0.075c-0.344 0.251-0.624 0.567-0.828 0.924z"></path>
<path fill="#ef3340" style="fill: var(--color15, #ef3340)" d="M3.835 17.662h23.127v4.625h-23.127z"></path>
<path fill="#509e2f" style="fill: var(--color16, #509e2f)" d="M3.835 22.287v2.698c0 1.063 0.865 1.927 1.928 1.927h9.003l0.338 0.247c0.104 0.076 0.204 0.156 0.298 0.241 0.094-0.084 0.194-0.164 0.298-0.241l0.338-0.247h8.997c1.063 0 1.927-0.865 1.927-1.927v-2.698z"></path>
<path fill="#ed1c24" style="fill: var(--color6, #ed1c24)" d="M5.692 4.921h0.549l0.821 2.284h-0.526l-0.154-0.47h-0.856l-0.157 0.47h-0.508zM5.66 6.342h0.595l-0.294-0.899zM7.428 6.801l1.187-1.477h-1.157v-0.404h1.761v0.382l-1.203 1.498h1.206v0.403h-1.793zM11.288 5.325h-1.229v0.486h1.129v0.397h-1.129v0.587h1.287v0.41h-1.761v-2.284h1.703zM13.187 4.98c0.085 0.036 0.158 0.090 0.217 0.16 0.049 0.058 0.088 0.122 0.117 0.192s0.043 0.15 0.043 0.241c0 0.109-0.028 0.215-0.084 0.32s-0.147 0.179-0.276 0.223c0.107 0.042 0.183 0.102 0.228 0.18s0.067 0.197 0.067 0.357v0.154c0 0.104 0.005 0.175 0.013 0.212 0.013 0.058 0.043 0.102 0.090 0.13v0.057h-0.536c-0.015-0.050-0.025-0.092-0.031-0.123-0.013-0.064-0.020-0.129-0.021-0.197l-0.004-0.213c-0.002-0.145-0.028-0.242-0.077-0.291s-0.141-0.073-0.277-0.073h-0.474v0.896h-0.474v-2.285h1.111c0.16 0.004 0.282 0.022 0.367 0.059zM12.184 5.317v0.613h0.523c0.103 0 0.181-0.013 0.233-0.038 0.092-0.043 0.137-0.129 0.137-0.257 0-0.138-0.045-0.232-0.133-0.279-0.049-0.027-0.125-0.040-0.224-0.040h-0.536zM15.692 5.164c0.071 0.097 0.107 0.214 0.107 0.348q0 0.209-0.108 0.337c-0.040 0.048-0.099 0.091-0.177 0.13 0.118 0.042 0.208 0.11 0.268 0.202s0.091 0.204 0.091 0.335c0 0.136-0.034 0.257-0.103 0.364-0.044 0.072-0.099 0.131-0.164 0.18-0.074 0.056-0.162 0.094-0.262 0.115s-0.21 0.031-0.329 0.031h-1.047v-2.286h1.122c0.283 0.005 0.483 0.085 0.601 0.243zM14.43 5.317v0.504h0.565q0.151 0 0.245-0.057c0.094-0.057 0.094-0.104 0.094-0.2 0-0.107-0.041-0.177-0.125-0.211-0.072-0.024-0.163-0.036-0.275-0.036zM14.43 6.199v0.609h0.564c0.101 0 0.18-0.013 0.235-0.040 0.101-0.049 0.153-0.145 0.153-0.285q0-0.178-0.148-0.245c-0.055-0.025-0.133-0.038-0.233-0.039zM17.066 4.921h0.549l0.821 2.284h-0.526l-0.154-0.47h-0.856l-0.157 0.47h-0.508zM17.034 6.342h0.595l-0.294-0.899zM18.802 4.921h0.482v2.284h-0.482zM20.107 6.338v0.052c0.004 0.177 0.022 0.301 0.056 0.373s0.104 0.108 0.213 0.108c0.108 0 0.179-0.040 0.214-0.118 0.021-0.047 0.031-0.125 0.031-0.235v-1.598h0.486v1.59c0 0.194-0.033 0.348-0.101 0.461q-0.17 0.288-0.611 0.288c-0.442 0-0.493-0.078-0.593-0.233s-0.151-0.367-0.151-0.637v-0.051zM22.297 4.921h0.549l0.821 2.284h-0.526l-0.154-0.47h-0.856l-0.157 0.47h-0.508zM22.266 6.342h0.594l-0.294-0.899zM24.033 4.921h0.509l0.922 1.593v-1.593h0.452v2.284h-0.486l-0.945-1.62v1.62h-0.452z"></path>
<path fill="#00b5e2" style="fill: var(--color17, #00b5e2)" d="M24.083 13.036c-0.038 0.079-0.078 0.156-0.123 0.232-0.506 0.901-1.493 1.49-2.534 1.52-0.168 0.841-0.697 1.601-1.435 2.034-0.459 0.272-0.997 0.417-1.555 0.417-0.707 0-1.385-0.233-1.908-0.654-0.454-0.358-0.802-0.87-0.991-1.437-0.256 0.766-0.811 1.427-1.531 1.781-0.41 0.214-0.882 0.327-1.363 0.327-0.728 0-1.423-0.25-1.958-0.702-0.538-0.445-0.909-1.075-1.046-1.759-0.901-0.031-1.753-0.457-2.296-1.153-0.153-0.186-0.277-0.39-0.376-0.605h-3.133v4.625h23.127v-4.625z"></path>
<path fill="#0083be" style="fill: var(--color18, #0083be)" d="M9.952 13.959c-0.925 0.078-1.875-0.458-2.239-1.322-0.467-0.968-0.069-2.239 0.865-2.784 0.734-0.467 1.737-0.432 2.446 0.086 0.536 0.381 0.848 1.003 0.934 1.651 0.017 0.164 0.009 0.338-0.026 0.51-0.155 0.786-0.726 1.47-1.487 1.737-0.016 0.153-0.026 0.33-0.026 0.51v0c1.055-0.286 1.919-1.245 1.98-2.351v-0.493c-0.043-0.891-0.614-1.729-1.401-2.144-1.063-0.579-2.498-0.329-3.285 0.596-0.856 0.934-0.891 2.481-0.086 3.458 0.544 0.7 1.452 1.081 2.325 1.012-0.009-0.154 0-0.319 0-0.466z"></path>
<path fill="#000002" style="fill: var(--color19, #000002)" d="M14.759 9.672c0.778-0.312 1.703-0.104 2.291 0.476 0.398 0.372 0.631 0.899 0.7 1.435 0.026 0.172 0.017 0.346-0.026 0.51-0.147 0.795-0.718 1.479-1.479 1.755-0.017 0.164-0.026 0.337-0.026 0.501 1.055-0.286 1.919-1.253 1.971-2.351 0-0.173 0-0.338-0.009-0.502-0.026-0.683-0.38-1.331-0.891-1.78-0.865-0.778-2.248-0.874-3.216-0.233-0.709 0.433-1.159 1.228-1.245 2.058 0.164 0.017 0.32 0.043 0.476 0.069 0.060-0.856 0.64-1.651 1.453-1.936z"></path>
<path fill="#ee2b4b" style="fill: var(--color20, #ee2b4b)" d="M23.265 9.888c-0.665-0.726-1.746-1.012-2.68-0.734-1.055 0.285-1.893 1.279-1.928 2.377 0.147 0.017 0.294 0.043 0.441 0.069 0.078-1.029 0.909-1.936 1.936-2.058 0.995-0.147 2.023 0.484 2.36 1.427 0.329 0.821 0.078 1.824-0.588 2.412-0.45 0.415-1.081 0.622-1.694 0.57-0.164-0.017-0.329-0.052-0.493-0.103-0.769-0.268-1.357-0.969-1.496-1.772-0.155-0.052-0.32-0.086-0.484-0.104 0.086 1.115 0.925 2.118 2.015 2.369 0.146 0.034 0.303 0.060 0.458 0.078 1.012 0.095 2.040-0.45 2.534-1.331 0.596-0.996 0.441-2.378-0.381-3.2z"></path>
<path fill="#fbab18" style="fill: var(--color21, #fbab18)" d="M12.83 11.98c0.173 0 0.338 0.043 0.502 0.095 0.76 0.294 1.357 0.969 1.496 1.772 0.164 0.052 0.329 0.086 0.493 0.103-0.104-1.089-0.925-2.109-2.015-2.342-0.155-0.026-0.312-0.052-0.476-0.069-0.138-0.026-0.286-0.026-0.432-0.035v0.493c0.138-0.008 0.286-0.017 0.432-0.017z"></path>
<path fill="#008c48" style="fill: var(--color22, #008c48)" d="M18.641 11.971c0.164 0.017 0.329 0.052 0.484 0.104 0.761 0.286 1.366 0.951 1.496 1.772 0.164 0.052 0.329 0.086 0.493 0.103-0.095-1.098-0.917-2.118-2.015-2.351-0.147-0.026-0.294-0.052-0.441-0.069-0.155-0.017-0.32-0.026-0.476-0.035 0.009 0.164 0.009 0.329 0.009 0.502 0.147-0.017 0.294-0.026 0.45-0.026z"></path>
<path fill="#fbab18" style="fill: var(--color21, #fbab18)" d="M13.254 16.329c-0.778 0.242-1.669-0.009-2.222-0.596-0.355-0.372-0.562-0.874-0.614-1.383 0-0.172 0.009-0.337 0.026-0.51 0.138-0.795 0.726-1.479 1.487-1.737 0.035-0.172 0.043-0.346 0.026-0.51-1.072 0.277-1.919 1.253-2.006 2.369 0 0.147-0.009 0.312 0 0.467 0.060 0.708 0.415 1.392 0.969 1.85 0.795 0.674 1.997 0.812 2.922 0.329 0.83-0.406 1.401-1.262 1.479-2.179-0.155-0.017-0.312-0.035-0.467-0.078-0.069 0.907-0.726 1.736-1.6 1.979z"></path>
<path fill="#008c48" style="fill: var(--color22, #008c48)" d="M18.692 16.398c-1.21 0.173-2.412-0.83-2.472-2.049 0-0.164 0.008-0.337 0.026-0.501 0.121-0.804 0.709-1.496 1.479-1.755 0.043-0.164 0.052-0.338 0.026-0.51-1.081 0.286-1.91 1.262-2.006 2.368-0.009 0.164-0.009 0.32 0.009 0.484 0.069 0.717 0.432 1.418 1.003 1.867 0.848 0.683 2.118 0.76 3.052 0.207 0.735-0.432 1.236-1.236 1.305-2.092-0.155-0.017-0.311-0.043-0.458-0.077-0.078 1.037-0.926 1.945-1.963 2.057z"></path>
<path fill="#000002" style="fill: var(--color19, #000002)" d="M15.745 13.951c-0.138 0-0.277 0.009-0.424 0-0.164-0.017-0.329-0.052-0.493-0.103-0.778-0.259-1.366-0.96-1.496-1.772-0.164-0.052-0.329-0.095-0.502-0.095 0.112 1.107 0.926 2.11 2.023 2.368 0.155 0.043 0.312 0.061 0.467 0.078 0.138 0.009 0.286 0.009 0.433 0.009-0.017-0.165-0.017-0.321-0.008-0.485z"></path>
<path fill="#fff" style="fill: var(--color1, #fff)" d="M15.159 21.708c-0.965 0-1.746-0.782-1.746-1.746s0.782-1.746 1.746-1.746c0.493 0 0.937 0.205 1.255 0.532-0.38-0.534-1.005-0.883-1.71-0.883-1.158 0-2.096 0.938-2.096 2.096s0.939 2.096 2.096 2.096c0.706 0 1.33-0.348 1.71-0.883-0.318 0.328-0.762 0.532-1.255 0.532z"></path>
<path fill="#fff" style="fill: var(--color1, #fff)" d="M17.030 21.139l-0.225-0.634-0.607 0.289 0.288-0.608-0.633-0.225 0.633-0.224-0.288-0.608 0.607 0.289 0.225-0.633 0.225 0.633 0.607-0.289-0.288 0.608 0.633 0.224-0.633 0.225 0.288 0.608-0.607-0.289z"></path>
</symbol>
</defs>
</svg>
