<svg xmlns="http://www.w3.org/2000/svg" viewBox="0 0 104 32"><path d="m33.77 20.925.635 1.679h2.814L32.226 9.668h-3.041l-4.993 12.936h2.814l.635-1.679zm-3.041-7.943 2.043 5.311h-4.085z"/><path d="m33.77 20.925.635 1.679h2.814L32.226 9.668h-3.041l-4.993 12.936h2.814l.635-1.679zm-3.041-7.943 2.043 5.311h-4.085zm24.102 9.577V9.623h-2.86l-3.813 9.713-3.813-9.713h-2.86v12.936h2.587v-6.4l2.542 6.445h3.087l2.496-6.445v6.4z"/><path d="M54.831 22.559V9.623h-2.86l-3.813 9.713-3.813-9.713h-2.86v12.936h2.587v-6.4l2.542 6.445h3.087l2.496-6.445v6.4zm13.753-1.634.635 1.679h2.814L67.04 9.668h-3.041l-4.993 12.936h2.814l.635-1.679zm-3.041-7.943 2.043 5.311h-4.085z"/><path d="m68.584 20.925.635 1.679h2.814L67.04 9.668h-3.041l-4.993 12.936h2.814l.635-1.679zm-3.041-7.943 2.043 5.311h-4.085zM88.102 16.113c0-3.54-2.905-6.445-6.445-6.445h-5.401v12.891h5.447c3.54 0 6.4-2.905 6.4-6.445zm-9.214-3.858h2.814a3.807 3.807 0 0 1 3.813 3.813 3.807 3.807 0 0 1-3.813 3.813h-2.814zM100.494 20.925l.635 1.679h2.814L98.95 9.668h-3.041l-4.993 12.936h2.814l.635-1.679zm-3.042-7.943 2.043 5.311H95.41z"/><path fill="#ed1c24" d="m17.112 22.06-7.716-4.766 7.444-.227c.272 0 .499-.227.499-.545v-5.719a.48.48 0 0 0-.227-.409L.272 0v6.173a.5.5 0 0 0 .272.454l7.308 4.494-7.217.454c-.227.091-.363.272-.363.499v5.719a.5.5 0 0 0 .272.454l16.885 10.394v-6.128c-.045-.182-.136-.363-.318-.454zM.726 11.938c.045 0 .045.045 0 0 .091.045.182 0 .182-.045v-.045l7.308-.454 8.579 5.265s.045.045.091.045l-.045-.045c-.045 0-.136 0-.136.045v.045l-7.671.227-8.17-5.038zm16.159 4.856s0-.045 0 0c.045-.045.045 0 0 0"/><path fill="#231f20" d="M55.149 27.597q0-.34-.136-.545c-.091-.136-.182-.272-.318-.409-.136-.091-.318-.182-.499-.227s-.408-.091-.635-.091c-.136 0-.272 0-.454.045s-.318.091-.454.182-.227.182-.318.318-.136.318-.136.499.045.363.136.499.227.227.363.318.318.136.545.182c.182.045.408.091.635.136s.408.091.635.136c.182.045.363.136.545.227s.272.227.363.409.136.363.136.59c0 .272-.045.454-.182.635-.091.182-.272.318-.408.409-.182.091-.363.182-.545.227-.227.045-.408.091-.59.091-.272 0-.545-.045-.817-.091s-.454-.182-.681-.318c-.182-.136-.318-.318-.454-.545-.091-.227-.182-.499-.136-.817h.318q0 .409.136.681c.091.182.227.318.363.454.182.136.363.227.59.272s.454.091.681.091c.136 0 .318 0 .454-.045.182-.045.318-.091.454-.182s.272-.182.363-.363q.136-.204.136-.545c0-.227-.045-.363-.136-.499s-.227-.227-.363-.318a2 2 0 0 0-.545-.182c-.182-.045-.408-.091-.635-.136s-.408-.091-.635-.136c-.182-.045-.363-.136-.545-.227-.136-.091-.272-.227-.363-.363s-.136-.363-.136-.59.045-.454.136-.59q.136-.272.408-.409c.182-.091.318-.182.545-.227a2.7 2.7 0 0 1 .59-.091c.272 0 .499.045.726.091s.408.136.59.272.318.272.408.454.182.409.182.681h-.318zm2.133-1.135v-.272h3.767v.272h-1.725v4.675h-.318v-4.675zm13.844-.272h.318l-1.997 2.86v2.088h-.318V29.05l-1.952-2.86h.363l1.77 2.633zm5.674 2.451c0-.363.045-.681.182-.999.091-.318.272-.59.454-.817s.454-.409.726-.545.635-.182.999-.182c.272 0 .545.045.772.136q.34.136.545.272c.136.091.272.227.363.363s.182.272.227.363c.045.136.091.227.091.318s.045.136.045.136h-.318c-.045-.227-.091-.409-.182-.545a1.1 1.1 0 0 0-.363-.409c-.136-.136-.318-.182-.499-.272-.182-.045-.363-.091-.59-.091-.318 0-.59.045-.862.182s-.454.272-.635.499-.318.454-.409.726-.136.59-.136.908.045.635.136.908.227.545.409.726c.182.227.409.363.635.499.272.136.545.182.862.182q.34 0 .681-.136t.545-.409c.136-.182.272-.363.363-.545.091-.227.136-.454.182-.681h.318c-.045.272-.091.545-.227.817-.136.227-.272.454-.454.635s-.409.318-.635.409-.499.136-.772.136c-.363 0-.681-.045-.999-.182-.272-.136-.545-.318-.726-.545s-.363-.499-.454-.817c-.227-.318-.272-.681-.272-1.044zm6.718-2.451h.318v4.675h2.814v.272h-3.132zm5.129 0h3.313v.272h-2.996v1.997h2.814v.272h-2.814v2.133h3.041v.272h-3.359zm11.257 0h.363l3.132 4.539V26.19h.318v4.948h-.363l-3.132-4.584v4.584h-.318zm-33.952 4.948h.318l-1.952-4.948H64l-1.997 4.948h.318l.454-1.18.272-.681.045-.136.136-.272.908-2.36h.045l1.044 2.769.091.272zm31.591 0h.363l-1.952-4.948h-.363l-1.952 4.948h.318l.454-1.18.272-.681.136-.409.953-2.36 1.089 2.769.091.272z"/></svg>
