<svg xmlns="http://www.w3.org/2000/svg" viewBox="0 0 31 32"><path d="M2.549 2.43v22.485a3.21 3.21 0 0 0 3.212 3.212h8.584a2.57 2.57 0 0 1 1.056 1.988 2.57 2.57 0 0 1 1.056-1.988h8.577a3.21 3.21 0 0 0 3.212-3.212V2.43z"/><path fill="#fff" d="M15.401 28.739a3 3 0 0 0-.82-.918l-.008-.006-.101-.075H5.764a2.83 2.83 0 0 1-2.827-2.826V2.815h24.926v22.099a2.83 2.83 0 0 1-2.827 2.826h-8.704l-.101.075a3 3 0 0 0-.828.924z"/><path fill="#ef3340" d="M3.835 17.662h23.127v4.625H3.835z"/><path fill="#509e2f" d="M3.835 22.287v2.698a1.93 1.93 0 0 0 1.928 1.927h9.003l.338.247q.156.114.298.241.141-.126.298-.241l.338-.247h8.997a1.93 1.93 0 0 0 1.927-1.927v-2.698z"/><path fill="#ed1c24" d="M5.692 4.921h.549l.821 2.284h-.526l-.154-.47h-.856l-.157.47h-.508zM5.66 6.342h.595l-.294-.899zm1.768.459 1.187-1.477H7.458V4.92h1.761v.382L8.016 6.8h1.206v.403H7.429zm3.86-1.476h-1.229v.486h1.129v.397h-1.129v.587h1.287v.41H9.585V4.921h1.703zm1.899-.345q.128.054.217.16.073.087.117.192c.044.105.043.15.043.241q0 .163-.084.32c-.084.157-.147.179-.276.223q.16.063.228.18c.068.117.067.197.067.357v.154q0 .156.013.212a.2.2 0 0 0 .09.13v.057h-.536a1.061 1.061 0 0 1-.052-.32l-.004-.213q-.003-.217-.077-.291c-.074-.074-.141-.073-.277-.073h-.474v.896h-.474V4.92h1.111q.24.005.367.059zm-1.003.337v.613h.523a.6.6 0 0 0 .233-.038q.138-.065.137-.257 0-.208-.133-.279a.5.5 0 0 0-.224-.04h-.536zm3.508-.153a.57.57 0 0 1 .107.348q0 .209-.108.337a.5.5 0 0 1-.177.13q.178.063.268.202c.09.139.091.204.091.335a.66.66 0 0 1-.103.364.64.64 0 0 1-.426.295q-.15.031-.329.031h-1.047V4.92h1.122q.424.007.601.243zm-1.262.153v.504h.565q.151 0 .245-.057c.094-.057.094-.104.094-.2q0-.16-.125-.211a.9.9 0 0 0-.275-.036zm0 .882v.609h.564a.55.55 0 0 0 .235-.04q.152-.074.153-.285 0-.178-.148-.245a.6.6 0 0 0-.233-.039zm2.636-1.278h.549l.821 2.284h-.526l-.154-.47H16.9l-.157.47h-.508zm-.032 1.421h.595l-.294-.899zm1.768-1.421h.482v2.284h-.482zm1.305 1.417v.052q.005.265.056.373c.051.108.104.108.213.108q.162 0 .214-.118a.6.6 0 0 0 .031-.235V4.92h.486v1.59q0 .291-.101.461-.17.288-.611.288c-.442 0-.493-.078-.593-.233s-.151-.367-.151-.637v-.051zm2.19-1.417h.549l.821 2.284h-.526l-.154-.47h-.856l-.157.47h-.508zm-.031 1.421h.594l-.294-.899zm1.767-1.421h.509l.922 1.593V4.921h.452v2.284h-.486l-.945-1.62v1.62h-.452z"/><path fill="#00b5e2" d="M24.083 13.036a3.04 3.04 0 0 1-2.657 1.752 3.08 3.08 0 0 1-1.435 2.034 3.05 3.05 0 0 1-1.555.417 3.05 3.05 0 0 1-1.908-.654 3.1 3.1 0 0 1-.991-1.437 3.08 3.08 0 0 1-1.531 1.781c-.41.214-.882.327-1.363.327-.728 0-1.423-.25-1.958-.702a3.08 3.08 0 0 1-1.046-1.759 3.06 3.06 0 0 1-2.296-1.153 2.8 2.8 0 0 1-.376-.605H3.834v4.625h23.127v-4.625z"/><path fill="#0083be" d="M9.952 13.959c-.925.078-1.875-.458-2.239-1.322-.467-.968-.069-2.239.865-2.784a2.21 2.21 0 0 1 2.446.086c.536.381.848 1.003.934 1.651.017.164.009.338-.026.51a2.33 2.33 0 0 1-1.487 1.737c-.016.153-.026.33-.026.51 1.055-.286 1.919-1.245 1.98-2.351v-.493c-.043-.891-.614-1.729-1.401-2.144-1.063-.579-2.498-.329-3.285.596-.856.934-.891 2.481-.086 3.458.544.7 1.452 1.081 2.325 1.012-.009-.154 0-.319 0-.466"/><path fill="#000002" d="M14.759 9.672c.778-.312 1.703-.104 2.291.476.398.372.631.899.7 1.435.026.172.017.346-.026.51a2.34 2.34 0 0 1-1.479 1.755 5 5 0 0 0-.026.501c1.055-.286 1.919-1.253 1.971-2.351 0-.173 0-.338-.009-.502-.026-.683-.38-1.331-.891-1.78-.865-.778-2.248-.874-3.216-.233-.709.433-1.159 1.228-1.245 2.058.164.017.32.043.476.069.06-.856.64-1.651 1.453-1.936z"/><path fill="#ee2b4b" d="M23.265 9.888c-.665-.726-1.746-1.012-2.68-.734-1.055.285-1.893 1.279-1.928 2.377.147.017.294.043.441.069.078-1.029.909-1.936 1.936-2.058.995-.147 2.023.484 2.36 1.427.329.821.078 1.824-.588 2.412a2.25 2.25 0 0 1-1.694.57 2.6 2.6 0 0 1-.493-.103 2.32 2.32 0 0 1-1.496-1.772 2.3 2.3 0 0 0-.484-.104c.086 1.115.925 2.118 2.015 2.369.146.034.303.06.458.078a2.68 2.68 0 0 0 2.534-1.331c.596-.996.441-2.378-.381-3.2"/><path fill="#fbab18" d="M12.83 11.98c.173 0 .338.043.502.095.76.294 1.357.969 1.496 1.772q.246.078.493.103c-.104-1.089-.925-2.109-2.015-2.342a8 8 0 0 0-.476-.069c-.138-.026-.286-.026-.432-.035v.493c.138-.008.286-.017.432-.017"/><path fill="#008c48" d="M18.641 11.971c.164.017.329.052.484.104.761.286 1.366.951 1.496 1.772q.247.078.493.103c-.095-1.098-.917-2.118-2.015-2.351-.147-.026-.294-.052-.441-.069-.155-.017-.32-.026-.476-.035.009.164.009.329.009.502.147-.017.294-.026.45-.026"/><path fill="#fbab18" d="M13.254 16.329c-.778.242-1.669-.009-2.222-.596a2.36 2.36 0 0 1-.614-1.383c0-.172.009-.337.026-.51a2.27 2.27 0 0 1 1.487-1.737c.035-.172.043-.346.026-.51-1.072.277-1.919 1.253-2.006 2.369 0 .147-.009.312 0 .467a2.73 2.73 0 0 0 .969 1.85c.795.674 1.997.812 2.922.329a2.71 2.71 0 0 0 1.479-2.179 3 3 0 0 1-.467-.078c-.069.907-.726 1.736-1.6 1.979z"/><path fill="#008c48" d="M18.692 16.398c-1.21.173-2.412-.83-2.472-2.049 0-.164.008-.337.026-.501a2.23 2.23 0 0 1 1.479-1.755c.043-.164.052-.338.026-.51-1.081.286-1.91 1.262-2.006 2.368-.009.164-.009.32.009.484a2.74 2.74 0 0 0 1.003 1.867c.848.683 2.118.76 3.052.207a2.72 2.72 0 0 0 1.305-2.092 4 4 0 0 1-.458-.077c-.078 1.037-.926 1.945-1.963 2.057z"/><path fill="#000002" d="M15.745 13.951c-.138 0-.277.009-.424 0a2.6 2.6 0 0 1-.493-.103 2.26 2.26 0 0 1-1.496-1.772 1.7 1.7 0 0 0-.502-.095c.112 1.107.926 2.11 2.023 2.368.155.043.312.061.467.078.138.009.286.009.433.009a3 3 0 0 1-.008-.485"/><path fill="#fff" d="M15.159 21.708a1.746 1.746 0 1 1 1.255-2.96 2.096 2.096 0 1 0 0 2.426 1.74 1.74 0 0 1-1.255.532z"/><path fill="#fff" d="m17.03 21.139-.225-.634-.607.289.288-.608-.633-.225.633-.224-.288-.608.607.289.225-.633.225.633.607-.289-.288.608.633.224-.633.225.288.608-.607-.289z"/></svg>
