<svg xmlns="http://www.w3.org/2000/svg" viewBox="0 0 50 32"><path fill="#00bd69" d="M39.75 0H9.938C4.45 0 .001 4.449.001 9.937s4.449 9.937 9.937 9.937h29.616c5.236 0 9.727-3.973 10.107-9.196.018-.222.028-.48.028-.74 0-5.489-4.449-9.938-9.938-9.939z"/><path fill="#467082" d="M10.898 25.696h1.494v.166q0 .711-.402 1.127c-.402.416-.636.423-1.093.423s-.843-.153-1.14-.444-.448-.69-.448-1.195.153-.905.444-1.2.675-.44 1.14-.44h.039c.346 0 .666.111.927.299l-.005-.003c.261.196.445.483.507.812l.001.008-.525.085a.87.87 0 0 0-.315-.549l-.002-.001a1 1 0 0 0-.592-.198l-.041.001h.002l-.044-.001c-.286 0-.544.118-.729.307q-.289.308-.29.884c-.001.576.098.675.29.88.185.19.443.308.728.308l.047-.001h-.002l.04.001a.97.97 0 0 0 .601-.207l-.002.002c.167-.133.274-.338.312-.613h-.943zm4.724-1.123q.442.443.444 1.205c.002.762-.145.905-.433 1.196s-.671.44-1.132.44-.819-.141-1.08-.423-.398-.653-.398-1.127v-.29h2.524a1 1 0 0 0-.316-.725 1.04 1.04 0 0 0-.694-.265l-.038.001h.002l-.044-.001c-.206 0-.398.057-.562.157l.005-.003a.73.73 0 0 0-.319.426l-.001.005-.517-.047a1.2 1.2 0 0 1 .486-.711l.004-.003a1.56 1.56 0 0 1 .932-.274h-.002q.695 0 1.139.44zm-.393 2.14q.286-.25.316-.704h-2.012v.009c0 .263.101.502.266.681l-.001-.001q.25.262.704.261l.045.001c.26 0 .498-.093.683-.248zm4.097-2.537v3.194h-.431l-1.576-2.254v2.254h-.508v-3.194h.431l1.576 2.261v-2.261zm3.328.282c.265.21.445.516.488.865l.001.006-.529.047a.9.9 0 0 0-.323-.583l-.002-.001a1 1 0 0 0-.612-.206l-.034.001h.002l-.04-.001a.98.98 0 0 0-.726.32l-.001.001q-.289.321-.29.867c-.001.546.098.662.299.871.185.195.445.316.734.316l.034-.001h-.002.028c.23 0 .443-.076.615-.203l-.003.002a.88.88 0 0 0 .323-.554l.001-.005.536.047a1.3 1.3 0 0 1-.492.847l-.003.002c-.26.198-.59.317-.947.317l-.042-.001h.002q-.698 0-1.149-.44c-.451-.44-.449-.69-.449-1.2s.153-.905.444-1.2.679-.44 1.149-.44h.035c.36 0 .692.122.955.328l-.003-.003zm1.703-.282v2.741h1.511v.453h-2.019v-3.194zm4.52.397q.443.443.444 1.205c.001.762-.145.905-.435 1.195s-.671.44-1.132.44-.82-.141-1.08-.423-.398-.653-.398-1.127v-.29h2.523a1 1 0 0 0-.315-.725 1.04 1.04 0 0 0-.694-.265l-.038.001h.002l-.044-.001c-.206 0-.398.057-.562.157l.005-.003a.73.73 0 0 0-.319.426l-.001.005-.517-.047c.073-.298.249-.546.487-.711l.004-.003a1.55 1.55 0 0 1 .938-.273h-.003c.46 0 .843.146 1.136.44zm-.394 2.14c.192-.167.294-.402.316-.704h-2.011v.009a1 1 0 0 0 .265.681l-.001-.001q.25.262.705.261l.044.001c.26 0 .498-.093.683-.248l-.002.001zm4.042.657h-.57l-.675-1.221h-.704v1.221h-.508v-3.194h1.29l.046-.001c.261 0 .5.098.681.259l-.001-.001q.276.262.277.73l.001.042c0 .193-.054.373-.148.526l.002-.004a.9.9 0 0 1-.4.335l-.006.002zm-1.956-1.674h.743a.56.56 0 0 0 .373-.142h-.001a.5.5 0 0 0 .154-.36l-.001-.034v.002l.001-.033a.52.52 0 0 0-.154-.368.58.58 0 0 0-.374-.137h-.742zm6.591-1.52-1.346 3.194h-.427l-1.341-3.194h.547l1.008 2.415 1.008-2.417zm2.946.397q.442.443.444 1.205c.002.762-.145.905-.435 1.195s-.67.44-1.132.44-.819-.141-1.08-.423-.398-.653-.398-1.127v-.29h2.524a1 1 0 0 0-.316-.725 1.04 1.04 0 0 0-.694-.265l-.038.001h.002l-.044-.001c-.206 0-.398.057-.562.157l.005-.003a.73.73 0 0 0-.319.426l-.001.005-.517-.047a1.2 1.2 0 0 1 .486-.711l.004-.003a1.55 1.55 0 0 1 .938-.273h-.002q.692 0 1.136.44zm-.393 2.14q.286-.25.316-.704h-2.012v.009c0 .263.101.502.266.681l-.001-.001q.25.262.704.261l.045.001c.26 0 .498-.093.683-.248zM9.937 28.008c.055.054.09.129.09.212v.01a.28.28 0 0 1-.09.205.295.295 0 0 1-.426 0 .28.28 0 0 1-.09-.205v-.009a.302.302 0 0 1 .517-.212zm.025.798V32h-.508v-3.194zm2.154 0q.688-.001 1.123.428c.435.429.436.679.436 1.169s-.146.88-.44 1.166a1.55 1.55 0 0 1-1.076.432L12.105 32H10.84v-3.194zm-.775.436v2.323h.766l.038.001c.285 0 .543-.118.728-.307q.288-.302.287-.858c-.001-.556-.094-.661-.287-.862a1 1 0 0 0-.715-.3l-.053.001h.002zm6.443-.436V32h-.504v-2.084l-1.012 2.058h-.329l-1.02-2.058V32h-.508v-3.194h.448l1.243 2.438 1.238-2.438zm2.358 0L21.496 32h-.556l-.29-.713h-1.443l-.295.713h-.55l1.349-3.194zm-.209.743-.529 1.285h1.057zm4.658-.743V32h-.431l-1.576-2.254V32h-.508v-3.194h.428l1.579 2.259v-2.259zm4.528 0V32h-.431l-1.577-2.254V32h-.508v-3.194h.427l1.579 2.259v-2.259zm2.353 0L32.825 32h-.555l-.29-.713h-1.444l-.294.713h-.551l1.349-3.194zm-.209.743-.529 1.285h1.054zm4.349-.743v.383l-1.664 2.358h1.7V32h-2.345v-.383l1.656-2.362h-1.614v-.448zm1.145-.798c.055.054.09.129.09.212v.01a.28.28 0 0 1-.09.205.295.295 0 0 1-.426 0 .28.28 0 0 1-.09-.204v-.009c0-.168.135-.304.303-.306.084 0 .16.036.214.093zm.025.798V32h-.508v-3.194zM40.119 32h-.572l-.675-1.221h-.704V32h-.508v-3.194h1.29l.045-.001c.261 0 .5.098.681.259l-.001-.001q.276.262.277.73l.001.042c0 .193-.054.373-.148.526l.002-.004a.9.9 0 0 1-.4.335l-.006.002zm-1.957-1.674h.743a.56.56 0 0 0 .373-.142h-.001a.5.5 0 0 0 .154-.36l-.001-.034v.002l.001-.033a.52.52 0 0 0-.154-.368.58.58 0 0 0-.374-.137h-.742zm3.113-1.52v2.741h1.511V32h-2.018v-3.194zm2.594-.798c.055.054.09.129.09.212v.01a.28.28 0 0 1-.09.205.295.295 0 0 1-.426 0 .28.28 0 0 1-.09-.205v-.009a.302.302 0 0 1 .517-.212zm.026.798V32h-.508v-3.194zm3.481 0-1.208 1.909V32h-.504v-1.285l-1.212-1.909h.589l.875 1.405.871-1.405zm1.047-.798c.055.054.09.129.09.212v.01a.28.28 0 0 1-.09.205.3.3 0 0 1-.428 0 .28.28 0 0 1-.09-.206v-.008c0-.083.034-.159.09-.213a.3.3 0 0 1 .428 0m.026.798V32h-.508v-3.194z"/><path fill="#fff" d="M16.209 12.521h-4.025l-1.03 3.379H9l3.884-11.925h2.71L19.478 15.9h-2.222zm-.506-1.662-1.517-4.878-1.5 4.878zm5.677 4.138 5.543-9.305h-5.872l.253-1.717h8.347v.903l-5.547 9.305h5.908l-.253 1.717h-8.38zM32.361 3.975h7.769l.253 1.717h-5.998v3.163h5.747l.252 1.698h-5.999v3.631h5.999l-.253 1.717h-7.77z"/></svg>
