<svg xmlns="http://www.w3.org/2000/svg" viewBox="0 0 22 32"><path d="M8.536.553c-.851.302-1.391 1.051-1.391 1.936-.004.417.051.634.243.996l.14.272-.421.455c-.234.251-.455.481-.489.511s-.064.068-.064.089c0 .064 14.8.043 14.979-.017.404-.14.455-.783.077-.992-.077-.047-1.174-.055-5.43-.06h-5.328l.123-.226a2.08 2.08 0 0 0-.072-2.14c-.213-.328-.464-.545-.86-.736-.298-.145-.349-.153-.787-.166-.387-.009-.511.004-.719.077zm-.749 5.004c-.353.217-.638.438-.817.634-.191.204-.417.702-.472 1.034l-.051.298-.204-.413c-.204-.413-.677-1.064-.834-1.149-.098-.055-.064-.106-.783 1.23-.621 1.157-.732 1.392-.834 1.796-.243.945-.094 1.851.43 2.651.434.664 1 1.098 2.14 1.66.83.409 1.549.702 3.319 1.362 1.417.528 1.809.711 2.502 1.153.157.102.302.187.323.187.047 0 .557.468 1.004.919a6.43 6.43 0 0 1 1.706 3.089c.089.383.102 1.392.021 1.757-.251 1.179-.745 2.089-1.562 2.868a6.1 6.1 0 0 1-3.068 1.562l-.396.077v2.187l.545-.017a9.1 9.1 0 0 0 3.574-.851c2.562-1.196 4.306-3.587 4.647-6.37.085-.672.034-2.017-.102-2.647-.353-1.681-1.157-3.072-2.434-4.238-.396-.362-.974-.796-2.06-1.549-2.311-1.6-3.06-2.298-3.392-3.162-.149-.379-.153-.894-.017-1.247.413-1.072 1.868-2.208 3.57-2.787l.54-.183-.362-.004c-1.149 0-2.357.217-3.179.579-.596.264-1.332.885-1.66 1.4-.064.106-.128.191-.14.191s-.047-.179-.072-.4c-.06-.502-.157-.728-.468-1.051-.238-.251-.945-.762-1.047-.762-.03 0-.196.089-.37.196zM2.94 15.579c-.536.608-.894 1.098-1.238 1.698-.681 1.192-1.128 2.626-1.217 3.902l-.03.396h1.332v-.145c0-.081.03-.37.064-.638a8.2 8.2 0 0 1 2.106-4.464c.162-.174.298-.336.298-.357 0-.017-.196-.23-.434-.468l-.438-.43zm2.205 2.149c-.902 1.047-1.447 2.281-1.591 3.579l-.03.268h1.243v-.166c0-.285.085-.808.196-1.192.192-.664.519-1.264 1.013-1.847l.234-.272-.34-.37c-.191-.2-.357-.366-.379-.366-.017 0-.174.166-.345.366zM.54 23.37c.553 3.532 2.974 6.366 6.485 7.587.438.153 1.264.37 1.604.426l.179.03v-.579c0-.46-.013-.579-.06-.579-.03 0-.26-.06-.515-.132-2.166-.621-4.132-2.06-5.226-3.826-.464-.753-.885-1.86-1.06-2.791l-.098-.528H.479z"/><path d="M3.574 23.021c0 .021.038.23.081.46.455 2.34 2.098 4.038 4.536 4.689.255.072.502.128.545.128.068 0 .072-.077.072-1.021v-1.021l-.115-.026q-1.891-.404-2.957-1.821c-.238-.315-.591-.962-.706-1.298l-.047-.132h-.702c-.426 0-.706.017-.706.043zm14.911 3.175c-1.719 2.779-4.643 4.4-7.762 4.311l-.511-.017v1.043h.447c.553 0 1.251-.094 1.881-.255 2.119-.549 4.047-1.983 5.404-4.021.289-.438.843-1.417.813-1.447-.013-.013-.132.162-.272.387z"/></svg>
