<svg xmlns="http://www.w3.org/2000/svg" viewBox="0 0 26 32"><path fill="#2b2a29" d="M17.713 12.685a4.948 4.948 0 1 1-9.896-.002 4.948 4.948 0 0 1 9.896.002M4.606 31.913h1.549v-4.997H4.606zm2.388-1.652 1.469-.092q.048.357.195.545.238.304.682.304.33 0 .51-.155a.47.47 0 0 0 .179-.359.46.46 0 0 0-.17-.348q-.171-.154-.792-.291-1.015-.228-1.449-.607a1.22 1.22 0 0 1-.436-.966q0-.385.224-.727.224-.343.672-.54.449-.195 1.228-.195.959 0 1.462.356.502.357.598 1.134l-1.455.085q-.059-.338-.244-.491c-.185-.153-.296-.154-.513-.154q-.27 0-.406.114a.35.35 0 0 0-.137.279q0 .118.112.214.11.1.52.185 1.012.218 1.45.441c.438.223.505.332.637.553q.2.332.2.74 0 .481-.266.887a1.67 1.67 0 0 1-.744.615q-.478.21-1.205.211-1.274 0-1.766-.491-.489-.492-.555-1.248zm5.043 0 1.469-.092q.048.357.196.545.238.304.682.304.33 0 .51-.155a.47.47 0 0 0 .179-.359.46.46 0 0 0-.17-.348q-.171-.154-.79-.291-1.017-.228-1.45-.607a1.22 1.22 0 0 1-.436-.966q0-.385.224-.727.223-.343.672-.54.449-.195 1.228-.195.959 0 1.462.356.502.357.598 1.134l-1.455.085q-.059-.338-.244-.491c-.185-.153-.296-.154-.513-.154q-.27 0-.406.114a.35.35 0 0 0-.137.279q0 .118.112.214.11.1.52.185 1.012.218 1.45.441c.438.223.505.332.637.553a1.4 1.4 0 0 1 .201.74q0 .481-.266.887a1.66 1.66 0 0 1-.744.615q-.478.21-1.205.211-1.275 0-1.766-.491-.489-.492-.555-1.248zm5.318-3.345h3.82v1.074h-2.267v.872h1.936v1.009h-1.936v2.042h-1.552z"/><path fill="#fecb2c" d="M1.801 12.224c.272-5.632 4.79-10.15 10.423-10.423V0C5.597.276.276 5.597 0 12.224z"/><path fill="#e32a31" d="M13.305 1.801c5.632.272 10.15 4.79 10.423 10.423h1.801v-.012C25.247 5.592 19.927.275 13.305 0z"/><path fill="#2d7cbf" d="M12.224 23.728c-5.632-.272-10.15-4.79-10.423-10.423H0c.276 6.627 5.597 11.948 12.224 12.224z"/><path fill="#229655" d="M23.728 13.305c-.272 5.632-4.79 10.15-10.423 10.423v1.801c6.622-.276 11.942-5.591 12.224-12.212v-.012zM5.719 12.224a7.064 7.064 0 0 1 6.505-6.55V3.871a8.86 8.86 0 0 0-8.307 8.353z"/><path fill="#2d7cbf" d="M13.305 5.674a7.065 7.065 0 0 1 6.505 6.55h1.803a8.86 8.86 0 0 0-8.307-8.353z"/><path fill="#fecb2c" d="M19.803 13.305a7.065 7.065 0 0 1-6.498 6.454v1.803a8.86 8.86 0 0 0 8.302-8.257z"/><path fill="#e32a31" d="M12.224 19.759a7.065 7.065 0 0 1-6.498-6.454H3.922a8.864 8.864 0 0 0 8.302 8.257z"/></svg>
